<svg width="100" height="48" viewBox="0 0 100 48" fill="none" xmlns="http://www.w3.org/2000/svg">
<g clip-path="url(#clip0_948_6361)">
<path d="M2.36586 0.0280762C1.05971 0.0280762 0 1.08499 0 2.3877V26.6546C0 27.9573 1.05971 29.0142 2.36586 29.0142C3.67202 29.0142 4.73173 27.9573 4.73173 26.6546V2.3877C4.72821 1.08499 3.67202 0.0280762 2.36586 0.0280762Z" fill="#1E344F"/>
<path d="M34.6325 7.58102C34.629 6.81204 34.5516 6.05359 34.4072 5.32674C34.0129 3.36039 32.9673 1.94884 31.207 1.01833C30.0029 0.382779 28.6404 0.063247 27.0421 0.0492016C25.9507 0.0386676 24.7712 0.0351562 23.3313 0.0351562C22.7856 0.0351562 22.2434 0.0351562 21.6977 0.0351562H18.1032C16.9026 0.0351562 15.7021 0.0351562 14.5016 0.0351562H14.4804C13.301 0.0351562 12.2765 0.158053 11.3541 0.414381C9.44594 0.941082 8.11162 1.94181 7.27371 3.46925C6.67168 4.56478 6.39355 5.83238 6.39355 7.45813C6.39355 9.50875 6.39355 11.5594 6.39355 13.61C6.39355 16.1978 6.39355 18.7822 6.39708 21.3701C6.39708 22.0723 6.42524 22.6025 6.48509 23.0871C6.75266 25.229 7.74196 26.7845 9.50931 27.8414C10.8401 28.6385 12.3927 29.0107 14.3995 29.0107C16.3253 29.0107 19.5466 29.0107 21.6907 29.0107H24.9332H26.5949C27.6793 29.0107 28.6123 28.9054 29.4572 28.6877C31.478 28.168 32.8898 27.1497 33.7665 25.5731C34.3579 24.5092 34.6361 23.2662 34.6361 21.658V19.2422C34.6431 15.4183 34.6466 11.4646 34.6255 7.58102H34.6325ZM29.9043 20.0919C29.9008 20.8679 29.8198 21.5316 29.6614 22.118C29.3481 23.2662 28.4644 24.6953 26.0422 24.9727C25.6514 25.0183 25.2747 25.0254 24.9262 25.0254C23.9228 25.0254 22.9229 25.0254 21.9231 25.0254H19.2931C18.2229 25.0254 17.1561 25.0254 16.0859 25.0254C15.4169 25.0254 14.5509 24.9762 13.6777 24.5829C12.6321 24.1124 11.3436 23.0766 11.1323 20.8047C11.1147 20.6011 11.1147 20.4115 11.1147 20.2429V20.1411V16.8545C11.1147 14.2034 11.1147 11.5523 11.1147 8.89777C11.1147 8.22009 11.1675 7.32821 11.59 6.45388C12.2554 5.07393 13.4947 4.27685 15.2655 4.09075C15.6246 4.05213 15.9732 4.04862 16.2689 4.04862H18.8179C19.2403 4.04862 20.6345 4.04862 21.6977 4.04862C22.7891 4.05213 23.796 4.05564 24.7607 4.06266C25.6444 4.06617 26.3978 4.16449 27.0667 4.36112C28.746 4.85622 29.7776 6.22214 29.8938 8.11475C29.9114 8.42374 29.9149 8.72923 29.9149 8.99258V11.3873C29.9149 14.242 29.9219 17.1951 29.9078 20.0989L29.9043 20.0919Z" fill="#1E344F"/>
<path d="M71.659 30.8927L70.4232 28.8912L68.1313 24.9656H63.5509C63.727 24.5442 63.8713 24.0912 63.9875 23.6032C64.1635 22.8553 64.241 22.0336 64.241 20.9345V20.9205C64.241 20.6256 64.241 18.7961 64.241 18.5117C64.241 18.4345 64.241 17.964 64.241 17.4021C64.241 16.3487 64.241 10.2179 64.241 9.89841V8.76074C64.241 5.82526 64.241 2.97405 64.241 0.0385742L60.238 2.39819V7.00156C60.238 8.61677 60.231 14.9653 60.231 17.0967C60.231 17.7217 60.231 18.3502 60.2275 18.9752C60.2275 19.7688 60.1254 20.5307 59.9317 21.2295C59.4565 22.9536 58.1362 24.0351 56.2104 24.2809C55.9147 24.3195 55.5978 24.337 55.2176 24.337C54.3023 24.337 53.3869 24.337 52.468 24.337C51.3836 24.337 49.0283 24.337 48.6411 24.337H45.219C44.5888 24.337 43.7544 24.2914 42.9095 23.9262C41.466 23.3047 40.6105 22.1038 40.3676 20.3622C40.3077 19.9373 40.3042 19.523 40.3042 19.1332C40.3042 18.1185 40.3042 17.1072 40.3042 16.0924C40.3042 14.3438 40.3042 8.95386 40.3042 7.54933V2.39819L36.2344 0.0385742V10.8816V16.1591V20.9591C36.2344 22.9114 36.5759 24.4283 37.3117 25.7381C38.2975 27.4937 39.7515 28.5155 41.7618 28.8596C42.3075 28.9544 42.9095 29.0001 43.5538 29.0036C45.7014 29.0106 50.8133 29.0141 52.9539 29.0141C53.8903 29.0141 54.8233 29.0141 55.7598 29.0141H64.9557L66.0541 30.8927H71.659Z" fill="#1E344F"/>
<path d="M0.0175781 41.4238V38.049H0.368761V41.4238H0.0175781Z" fill="#1E344F"/>
<path d="M1.92942 41.4238H1.57031V38.049H1.92942V41.4238ZM4.08052 39.8681H1.89069V39.5555H4.08052V39.8681ZM4.04532 38.049H4.39738V41.4238H4.04532V38.049Z" fill="#1E344F"/>
<path d="M7.19591 41.1921C6.79456 41.1921 6.44953 41.1359 6.16084 41.02C5.87567 40.9076 5.65387 40.7391 5.49896 40.5213C5.34406 40.3036 5.2666 40.0402 5.2666 39.7312C5.2666 39.4221 5.34406 39.1587 5.49896 38.9445C5.65387 38.7268 5.87567 38.5617 6.16084 38.4458C6.44601 38.3299 6.79103 38.2738 7.19591 38.2738H7.28392C7.6888 38.2738 8.03734 38.3335 8.32251 38.4458C8.60768 38.5617 8.82948 38.7268 8.98439 38.9445C9.1393 39.1622 9.21675 39.4256 9.21675 39.7312C9.21675 40.0367 9.1393 40.3036 8.98791 40.5213C8.833 40.7391 8.61472 40.9076 8.32955 41.02C8.04086 41.1359 7.69936 41.1921 7.30153 41.1921H7.19943H7.19591ZM7.23463 40.9146H7.26984C7.60782 40.9146 7.89651 40.8655 8.13592 40.7707C8.37532 40.6758 8.55839 40.5459 8.68513 40.3703C8.81188 40.1947 8.87525 39.9805 8.87525 39.7312C8.87525 39.4818 8.81188 39.2641 8.68513 39.0885C8.55839 38.9164 8.37532 38.783 8.13944 38.6917C7.90355 38.6004 7.61486 38.5547 7.2804 38.5547H7.23815C6.89665 38.5547 6.60444 38.6004 6.36152 38.6881C6.11859 38.7795 5.93552 38.9094 5.80526 39.085C5.67499 39.2606 5.61162 39.4748 5.61162 39.7277C5.61162 39.9805 5.67852 40.2017 5.80878 40.3773C5.93904 40.5529 6.12564 40.6864 6.36856 40.7742C6.61148 40.8655 6.90017 40.9076 7.23463 40.9076V40.9146ZM7.07621 41.5398V37.9331H7.41067V41.5398H7.07621Z" fill="#1E344F"/>
<path d="M11.5725 41.452C11.319 41.452 11.0831 41.4098 10.8648 41.3255C10.6465 41.2413 10.4599 41.1183 10.298 40.9638C10.1396 40.8093 10.0128 40.6267 9.9248 40.4195C9.83678 40.2123 9.79102 39.984 9.79102 39.7382C9.79102 39.4924 9.83678 39.2641 9.9248 39.0569C10.0128 38.8497 10.136 38.6671 10.298 38.5126C10.4564 38.358 10.6465 38.2351 10.8613 38.1508C11.076 38.0666 11.3154 38.0244 11.5725 38.0244C11.8295 38.0244 12.0618 38.0666 12.2766 38.1508C12.4913 38.2351 12.6815 38.3545 12.8399 38.509C12.9983 38.6636 13.1251 38.8462 13.2131 39.0534C13.3011 39.2606 13.3469 39.4924 13.3469 39.7382C13.3469 39.984 13.3011 40.2158 13.2131 40.423C13.1251 40.6302 13.0018 40.8128 12.8399 40.9673C12.6779 41.1218 12.4913 41.2413 12.2766 41.3255C12.0618 41.4098 11.8259 41.452 11.5725 41.452ZM11.5725 41.1359C11.7767 41.1359 11.9632 41.1008 12.1358 41.0305C12.3083 40.9603 12.4597 40.862 12.5864 40.7355C12.7131 40.6091 12.8117 40.4616 12.8821 40.2931C12.9525 40.1245 12.9877 39.9384 12.9877 39.7347C12.9877 39.531 12.9525 39.3484 12.8821 39.1798C12.8117 39.0112 12.7131 38.8637 12.5864 38.7373C12.4597 38.6109 12.3083 38.5126 12.1358 38.4423C11.9632 38.3721 11.7767 38.3405 11.5725 38.3405C11.3683 38.3405 11.1817 38.3756 11.0056 38.4423C10.8331 38.5126 10.6817 38.6109 10.5515 38.7373C10.4212 38.8637 10.3226 39.0112 10.2522 39.1798C10.1818 39.3484 10.1466 39.5345 10.1466 39.7347C10.1466 39.9349 10.1818 40.1175 10.2522 40.2895C10.3226 40.4616 10.4247 40.6091 10.5515 40.7355C10.6782 40.862 10.8331 40.9603 11.0056 41.0305C11.1781 41.1008 11.3683 41.1359 11.5725 41.1359Z" fill="#1E344F"/>
<path d="M14.2584 41.4238V38.049H15.5258C15.811 38.049 16.0574 38.0946 16.2652 38.1859C16.4694 38.2772 16.6313 38.4107 16.7404 38.5827C16.8531 38.7548 16.9059 38.962 16.9059 39.2079C16.9059 39.4537 16.8496 39.6503 16.7404 39.8224C16.6278 39.9945 16.4694 40.128 16.2652 40.2193C16.0574 40.3141 15.811 40.3597 15.5258 40.3597H14.4556L14.614 40.1912V41.4238H14.2549H14.2584ZM14.6175 40.2193L14.4591 40.0472H15.5188C15.8568 40.0472 16.1138 39.9734 16.2898 39.8294C16.4658 39.682 16.5539 39.4783 16.5539 39.2114C16.5539 38.9445 16.4658 38.7338 16.2898 38.5827C16.1138 38.4317 15.8568 38.3615 15.5188 38.3615H14.4591L14.6175 38.1929V40.2228V40.2193Z" fill="#1E344F"/>
<path d="M17.6943 41.4238V38.049H17.9901L19.5356 40.6828H19.3807L20.9122 38.049H21.2079V41.4238H20.8664V38.5827H20.9474L19.5356 40.9954H19.3666L17.9443 38.5827H18.0358V41.4238H17.6943Z" fill="#1E344F"/>
<path d="M21.9123 41.4238L23.4579 38.049H23.8099L25.3555 41.4238H24.9788L23.5565 38.2561H23.7008L22.2785 41.4238H21.9053H21.9123ZM22.5214 40.5213L22.627 40.2333H24.595L24.7007 40.5213H22.5214Z" fill="#1E344F"/>
<path d="M26.0635 41.4238V38.049H26.4155V41.1148H28.461V38.049H28.8131V41.4238H26.0635ZM29.0173 42.214V41.3255L29.1088 41.4203H28.461V41.1113H29.3517V42.2105H29.0173V42.214Z" fill="#1E344F"/>
<path d="M30.1191 41.4238V38.049H30.4703V41.4238H30.1191Z" fill="#1E344F"/>
<path d="M31.6719 41.4238V38.0489H32.0239V40.8444L34.1891 38.0489H34.513V41.4238H34.161V38.6319L31.9958 41.4238H31.6719ZM33.0836 37.8031C32.8407 37.8031 32.6506 37.7469 32.5098 37.6381C32.369 37.5292 32.2985 37.3747 32.295 37.1815H32.5591C32.5591 37.3115 32.6119 37.4098 32.7069 37.487C32.802 37.5608 32.9252 37.5994 33.0801 37.5994C33.235 37.5994 33.3583 37.5608 33.4533 37.487C33.5484 37.4133 33.5977 37.3115 33.6012 37.1815H33.8652C33.8652 37.3782 33.7913 37.5292 33.6469 37.6381C33.5061 37.7469 33.316 37.8031 33.0766 37.8031H33.0836Z" fill="#1E344F"/>
<path d="M36.0691 41.4238H35.71V38.049H36.0691V41.4238ZM38.2202 39.8681H36.0303V39.5555H38.2202V39.8681ZM38.1885 38.049H38.5405V41.4238H38.1885V38.049Z" fill="#1E344F"/>
<path d="M41.2228 41.452C40.9694 41.452 40.7335 41.4098 40.5152 41.3255C40.2969 41.2413 40.1103 41.1183 39.9484 40.9638C39.7899 40.8093 39.6632 40.6267 39.5752 40.4195C39.4872 40.2123 39.4414 39.984 39.4414 39.7382C39.4414 39.4924 39.4872 39.2641 39.5752 39.0569C39.6632 38.8497 39.7864 38.6671 39.9484 38.5126C40.1068 38.358 40.2969 38.2351 40.5117 38.1508C40.7264 38.0666 40.9658 38.0244 41.2228 38.0244C41.4799 38.0244 41.7122 38.0666 41.927 38.1508C42.1417 38.2351 42.3318 38.3545 42.4903 38.509C42.6487 38.6636 42.7754 38.8462 42.8635 39.0534C42.9515 39.2606 42.9972 39.4924 42.9972 39.7382C42.9972 39.984 42.9515 40.2158 42.8635 40.423C42.7754 40.6302 42.6522 40.8128 42.4903 40.9673C42.3283 41.1218 42.1417 41.2413 41.927 41.3255C41.7122 41.4098 41.4763 41.452 41.2228 41.452ZM41.2228 41.1359C41.427 41.1359 41.6136 41.1008 41.7861 41.0305C41.9587 40.9603 42.11 40.862 42.2368 40.7355C42.3635 40.6091 42.4621 40.4616 42.5325 40.2931C42.6029 40.1245 42.6381 39.9384 42.6381 39.7347C42.6381 39.531 42.6029 39.3484 42.5325 39.1798C42.4621 39.0112 42.3635 38.8637 42.2368 38.7373C42.11 38.6109 41.9587 38.5126 41.7861 38.4423C41.6136 38.3721 41.427 38.3405 41.2228 38.3405C41.0186 38.3405 40.8321 38.3756 40.656 38.4423C40.4835 38.5126 40.3321 38.6109 40.2019 38.7373C40.0716 38.8637 39.973 39.0112 39.9026 39.1798C39.8322 39.3484 39.797 39.5345 39.797 39.7347C39.797 39.9349 39.8322 40.1175 39.9026 40.2895C39.973 40.4616 40.0751 40.6091 40.2019 40.7355C40.3286 40.862 40.4835 40.9603 40.656 41.0305C40.8285 41.1008 41.0186 41.1359 41.2228 41.1359Z" fill="#1E344F"/>
<path d="M43.7158 39.8748V39.5763H44.9832V39.8748H43.7158Z" fill="#1E344F"/>
<path d="M47.4719 41.452C47.2184 41.452 46.9825 41.4098 46.7642 41.3255C46.5459 41.2413 46.3594 41.1183 46.1974 40.9638C46.039 40.8093 45.9122 40.6267 45.8242 40.4195C45.7362 40.2123 45.6904 39.984 45.6904 39.7382C45.6904 39.4924 45.7362 39.2641 45.8242 39.0569C45.9122 38.8497 46.0355 38.6671 46.1974 38.5126C46.3558 38.358 46.5459 38.2351 46.7607 38.1508C46.9755 38.0666 47.2149 38.0244 47.4719 38.0244C47.7289 38.0244 47.9612 38.0666 48.176 38.1508C48.3908 38.2351 48.5809 38.3545 48.7393 38.509C48.8977 38.6636 49.0245 38.8462 49.1125 39.0534C49.2005 39.2606 49.2463 39.4924 49.2463 39.7382C49.2463 39.984 49.2005 40.2158 49.1125 40.423C49.0245 40.6302 48.9012 40.8128 48.7393 40.9673C48.5773 41.1218 48.3908 41.2413 48.176 41.3255C47.9612 41.4098 47.7254 41.452 47.4719 41.452ZM47.4719 41.1359C47.6761 41.1359 47.8627 41.1008 48.0352 41.0305C48.2077 40.9603 48.3591 40.862 48.4858 40.7355C48.6126 40.6091 48.7111 40.4616 48.7815 40.2931C48.852 40.1245 48.8872 39.9384 48.8872 39.7347C48.8872 39.531 48.852 39.3484 48.7815 39.1798C48.7111 39.0112 48.6126 38.8637 48.4858 38.7373C48.3591 38.6109 48.2077 38.5126 48.0352 38.4423C47.8627 38.3721 47.6761 38.3405 47.4719 38.3405C47.2677 38.3405 47.0811 38.3756 46.905 38.4423C46.7325 38.5126 46.5812 38.6109 46.4509 38.7373C46.3206 38.8637 46.222 39.0112 46.1516 39.1798C46.0812 39.3484 46.046 39.5345 46.046 39.7347C46.046 39.9349 46.0812 40.1175 46.1516 40.2895C46.222 40.4616 46.3241 40.6091 46.4509 40.7355C46.5776 40.862 46.7325 40.9603 46.905 41.0305C47.0776 41.1008 47.2677 41.1359 47.4719 41.1359Z" fill="#1E344F"/>
<path d="M50.1582 41.4238V38.049H52.6332V38.351H50.5103V39.4537H51.6157C52.0136 39.4537 52.3199 39.5345 52.5276 39.696C52.7353 39.8575 52.8409 40.0963 52.8409 40.4124C52.8409 40.7285 52.7283 40.9848 52.5065 41.1604C52.2811 41.3325 51.9608 41.4203 51.5418 41.4203H50.1582V41.4238ZM50.5138 41.1394H51.5383C51.8516 41.1394 52.0875 41.0797 52.2459 40.9603C52.4044 40.8409 52.4853 40.6653 52.4853 40.4335C52.4853 39.9734 52.1685 39.7452 51.5383 39.7452H50.5138V41.1429V41.1394Z" fill="#1E344F"/>
<path d="M55.6643 39.998C55.4707 40.0858 55.2771 40.149 55.0869 40.1947C54.8968 40.2403 54.7102 40.2614 54.5342 40.2614C54.1364 40.2614 53.8301 40.1666 53.6083 39.9734C53.3865 39.7838 53.2773 39.5099 53.2773 39.1622V38.049H53.6294V39.1236C53.6294 39.3834 53.7139 39.5871 53.8794 39.7311C54.0448 39.8751 54.2737 39.9488 54.5694 39.9488C54.7454 39.9488 54.925 39.9243 55.1116 39.8786C55.2982 39.833 55.4848 39.7662 55.6679 39.6784V39.998H55.6643ZM55.601 41.4238V38.049H55.9495V41.4238H55.601Z" fill="#1E344F"/>
<path d="M57.1543 41.4238V38.049H57.5064V40.8444L59.6716 38.049H59.9954V41.4238H59.6434V38.6319L57.4782 41.4238H57.1543Z" fill="#1E344F"/>
<path d="M62.6746 41.452C62.4211 41.452 62.1852 41.4098 61.9705 41.3255C61.7557 41.2413 61.5691 41.1218 61.4107 40.9673C61.2522 40.8128 61.129 40.6302 61.041 40.423C60.953 40.2158 60.9072 39.984 60.9072 39.7382C60.9072 39.4924 60.953 39.2641 61.041 39.0534C61.129 38.8427 61.2522 38.6636 61.4142 38.509C61.5761 38.3545 61.7627 38.2351 61.9775 38.1508C62.1923 38.0666 62.4281 38.0244 62.6816 38.0244C62.9351 38.0244 63.1569 38.0666 63.3717 38.1473C63.5864 38.2281 63.7695 38.351 63.9174 38.5161L63.6885 38.7443C63.5512 38.6039 63.3963 38.502 63.2308 38.4388C63.0619 38.3756 62.8823 38.344 62.6887 38.344C62.495 38.344 62.2979 38.3791 62.1218 38.4458C61.9493 38.5161 61.7979 38.6144 61.6677 38.7408C61.5374 38.8673 61.4388 39.0147 61.3649 39.1833C61.291 39.3519 61.2558 39.538 61.2558 39.7382C61.2558 39.9384 61.291 40.128 61.3649 40.2966C61.4388 40.4651 61.5374 40.6126 61.6677 40.7391C61.7979 40.8655 61.9493 40.9638 62.1218 41.0341C62.2979 41.1043 62.4845 41.1394 62.6887 41.1394C62.8929 41.1394 63.0619 41.1078 63.2308 41.0411C63.3998 40.9779 63.5512 40.8725 63.6885 40.732L63.9174 40.9568C63.7695 41.1218 63.5864 41.2448 63.3717 41.329C63.1569 41.4133 62.9245 41.4555 62.6746 41.4555V41.452Z" fill="#1E344F"/>
<path d="M64.3746 41.4519C64.3288 41.4519 64.2866 41.4519 64.2443 41.4449C64.2021 41.4413 64.1563 41.4308 64.1035 41.4168L64.1317 41.0972C64.188 41.1112 64.2408 41.1183 64.2901 41.1183C64.4345 41.1183 64.5506 41.0621 64.6422 40.9462C64.7302 40.8338 64.7971 40.6547 64.8428 40.4159C64.8886 40.1771 64.9168 39.8681 64.9309 39.4923L64.9802 38.0454H67.2756V41.4203H66.9235V38.2561L67.0151 38.3509H65.209L65.297 38.2491L65.2548 39.4782C65.2407 39.8154 65.216 40.1069 65.1808 40.3527C65.1456 40.5985 65.0928 40.8022 65.0259 40.9637C64.959 41.1253 64.871 41.2482 64.7654 41.3255C64.6598 41.4027 64.5295 41.4449 64.3781 41.4449L64.3746 41.4519Z" fill="#1E344F"/>
<path d="M68.4766 41.4239V38.049H68.8286V39.5485H69.7053V39.8716H68.8286V41.4239H68.4766ZM71.2051 41.452C70.9621 41.452 70.7403 41.4098 70.5361 41.3255C70.3319 41.2413 70.1524 41.1218 70.001 40.9673C69.8496 40.8128 69.7299 40.6302 69.6454 40.423C69.5609 40.2158 69.5187 39.984 69.5187 39.7382C69.5187 39.4924 69.5609 39.2641 69.6454 39.0534C69.7299 38.8462 69.8496 38.6636 70.001 38.509C70.1524 38.3545 70.3319 38.2351 70.5361 38.1508C70.7403 38.0666 70.9656 38.0244 71.2051 38.0244C71.4445 38.0244 71.6698 38.0666 71.8775 38.1508C72.0852 38.2351 72.2612 38.3545 72.4126 38.509C72.564 38.6636 72.6837 38.8462 72.7682 39.0534C72.8527 39.2606 72.895 39.4924 72.895 39.7382C72.895 39.984 72.8527 40.2158 72.7682 40.423C72.6837 40.6302 72.564 40.8128 72.4126 40.9673C72.2612 41.1218 72.0817 41.2413 71.8775 41.3255C71.6733 41.4098 71.448 41.452 71.2051 41.452ZM71.2051 41.1359C71.3952 41.1359 71.5712 41.1008 71.7331 41.0305C71.8951 40.9603 72.0359 40.8655 72.1556 40.7391C72.2753 40.6126 72.3669 40.4651 72.4373 40.2966C72.5077 40.128 72.5394 39.9419 72.5394 39.7347C72.5394 39.5275 72.5042 39.3413 72.4373 39.1728C72.3704 39.0042 72.2753 38.8567 72.1556 38.7303C72.0359 38.6039 71.8951 38.509 71.7331 38.4388C71.5712 38.3686 71.3952 38.337 71.2051 38.337C71.0149 38.337 70.8424 38.3721 70.6805 38.4388C70.5185 38.509 70.3777 38.6039 70.258 38.7303C70.1383 38.8567 70.0468 39.0042 69.9763 39.1728C69.9095 39.3413 69.8743 39.5275 69.8743 39.7347C69.8743 39.9419 69.9095 40.128 69.9763 40.2966C70.0432 40.4651 70.1383 40.6126 70.258 40.7391C70.3777 40.8655 70.5185 40.9603 70.6805 41.0305C70.8424 41.1008 71.0185 41.1359 71.2051 41.1359Z" fill="#1E344F"/>
<path d="M73.8102 41.4238V38.049H75.2184C75.5775 38.049 75.8556 38.1227 76.0634 38.2667C76.2676 38.4142 76.3697 38.6284 76.3697 38.9093C76.3697 39.1903 76.2711 39.401 76.0739 39.545C75.8768 39.689 75.6198 39.7592 75.2994 39.7592L75.3804 39.6398C75.7571 39.6398 76.0458 39.7136 76.2394 39.8611C76.433 40.0085 76.5351 40.2263 76.5351 40.5107C76.5351 40.7952 76.433 41.0235 76.2288 41.185C76.0246 41.343 75.7183 41.4238 75.3064 41.4238H73.8066H73.8102ZM74.1657 39.5766H75.2008C75.4613 39.5766 75.662 39.5239 75.8028 39.4186C75.9437 39.3132 76.0141 39.1587 76.0141 38.9515C76.0141 38.7443 75.9437 38.5898 75.8028 38.4844C75.662 38.3791 75.4613 38.3264 75.2008 38.3264H74.1657V39.5696V39.5766ZM74.1657 41.1394H75.31C75.5986 41.1394 75.8134 41.0867 75.9613 40.9813C76.1091 40.876 76.1831 40.7109 76.1831 40.4897C76.1831 40.2684 76.1091 40.1104 75.9613 40.0086C75.8134 39.9067 75.5951 39.854 75.31 39.854H74.1657V41.1429V41.1394Z" fill="#1E344F"/>
<path d="M76.9924 41.4238L78.538 38.049H78.89L80.4356 41.4238H80.0589L78.6365 38.2561H78.7809L77.3585 41.4238H76.9854H76.9924ZM77.6015 40.5213L77.7071 40.2333H79.6751L79.7807 40.5213H77.6015Z" fill="#1E344F"/>
<path d="M80.8971 41.4519C80.8513 41.4519 80.8091 41.4519 80.7668 41.4449C80.7246 41.4413 80.6788 41.4308 80.626 41.4168L80.6541 41.0972C80.7105 41.1112 80.7633 41.1183 80.8126 41.1183C80.9569 41.1183 81.0731 41.0621 81.1646 40.9462C81.2526 40.8338 81.3195 40.6547 81.3653 40.4159C81.4111 40.1771 81.4392 39.8681 81.4533 39.4923L81.5026 38.0454H83.7981V41.4203H83.446V38.2561L83.5375 38.3509H81.7315L81.8195 38.2491L81.7772 39.4782C81.7631 39.8154 81.7385 40.1069 81.7033 40.3527C81.6681 40.5985 81.6153 40.8022 81.5484 40.9637C81.4815 41.1253 81.3935 41.2482 81.2879 41.3255C81.1822 41.4027 81.052 41.4449 80.9006 41.4449L80.8971 41.4519Z" fill="#1E344F"/>
<path d="M86.4139 39.2535C86.8153 39.2535 87.1181 39.3413 87.3293 39.5204C87.5405 39.6995 87.6462 39.9629 87.6462 40.3141C87.6462 40.6652 87.5335 40.9532 87.3082 41.1393C87.0829 41.329 86.759 41.4203 86.34 41.4203H84.9951V38.0454H85.3472V39.25H86.4104L86.4139 39.2535ZM86.3294 41.1393C86.6428 41.1393 86.8787 41.0691 87.0441 40.9321C87.2096 40.7952 87.287 40.5915 87.287 40.3246C87.287 40.0577 87.2061 39.861 87.0441 39.7346C86.8822 39.6082 86.6463 39.545 86.3294 39.545H85.3472V41.1393H86.3294Z" fill="#1E344F"/>
<path d="M88.8435 41.4238H88.4844V38.049H88.8435V41.4238ZM90.9946 39.8681H88.8048V39.5555H90.9946V39.8681ZM90.9629 38.049H91.315V41.4238H90.9629V38.049Z" fill="#1E344F"/>
<path d="M92.5117 41.4238V38.049H92.8638V40.8444L95.029 38.049H95.3529V41.4238H95.0008V38.6319L92.8356 41.4238H92.5117Z" fill="#1E344F"/>
<path d="M96.5537 41.4238V38.0489H96.9058V40.8444L99.071 38.0489H99.3949V41.4238H99.0428V38.6319L96.8776 41.4238H96.5537ZM97.9655 37.8031C97.7226 37.8031 97.5324 37.7469 97.3916 37.6381C97.2508 37.5292 97.1804 37.3747 97.1769 37.1815H97.4409C97.4409 37.3115 97.4937 37.4098 97.5888 37.487C97.6838 37.5608 97.8071 37.5994 97.962 37.5994C98.1169 37.5994 98.2401 37.5608 98.3351 37.487C98.4302 37.4133 98.4795 37.3115 98.483 37.1815H98.7471C98.7471 37.3782 98.6731 37.5292 98.5288 37.6381C98.388 37.7469 98.1978 37.8031 97.9584 37.8031H97.9655Z" fill="#1E344F"/>
<path d="M0.0175781 47.2103V43.8354H0.369641V46.9013H2.41513V43.8354H2.76719V47.2103H0.0175781ZM2.97139 48.0005V47.112L3.06292 47.2068H2.41513V46.8978H3.30585V47.997H2.97139V48.0005Z" fill="#1E344F"/>
<path d="M4.70383 46.9013H6.73875V47.2103H4.34473V43.8354H6.66482V44.1445H4.70031V46.9013H4.70383ZM4.6651 45.342H6.45358V45.644H4.6651V45.342Z" fill="#1E344F"/>
<path d="M8.2175 47.2103H7.8584V43.8354H8.2175V47.2103ZM10.3686 45.6511H8.17878V45.3385H10.3686V45.6511ZM10.3334 43.8354H10.6855V47.2103H10.3334V43.8354Z" fill="#1E344F"/>
<path d="M12.8296 47.2104V44.0463L12.9247 44.1411H11.6396V43.832H14.3717V44.1411H13.0901L13.1817 44.0463V47.2104H12.8296Z" fill="#1E344F"/>
<path d="M15.3287 47.2103V43.8354H16.5961C16.8813 43.8354 17.1278 43.8811 17.3355 43.9724C17.5397 44.0637 17.7016 44.1972 17.8108 44.3692C17.9234 44.5413 17.9762 44.7485 17.9762 44.9944C17.9762 45.2402 17.9199 45.4368 17.8108 45.6089C17.6981 45.781 17.5397 45.9145 17.3355 46.0058C17.1278 46.1006 16.8813 46.1462 16.5961 46.1462H15.5259L15.6843 45.9777V47.2103H15.3252H15.3287ZM15.6843 46.0058L15.5259 45.8337H16.5856C16.9236 45.8337 17.1806 45.7599 17.3566 45.6159C17.5326 45.4685 17.6206 45.2648 17.6206 44.9979C17.6206 44.731 17.5326 44.5203 17.3566 44.3728C17.1806 44.2253 16.9236 44.1515 16.5856 44.1515H15.5259L15.6843 43.9829V46.0128V46.0058Z" fill="#1E344F"/>
<path d="M20.6797 47.2103V43.8354H20.9754L22.521 46.4693H22.3661L23.8975 43.8354H24.1933V47.2103H23.8518V44.3692H23.9328L22.521 46.7784H22.352L20.9297 44.3692H21.0212V47.2103H20.6797Z" fill="#1E344F"/>
<path d="M25.6621 47.2103V43.8354H26.0133V47.2103H25.6621Z" fill="#1E344F"/>
<path d="M27.8415 47.2103H27.4824V43.8354H27.8415V47.2103ZM29.9926 45.6511H27.8028V45.3385H29.9926V45.6511ZM29.9609 43.8354H30.313V47.2103H29.9609V43.8354Z" fill="#1E344F"/>
<path d="M33.2625 47.2385C33.009 47.2385 32.7731 47.1963 32.5583 47.112C32.3436 47.0277 32.157 46.9083 31.9986 46.7538C31.8401 46.5993 31.7169 46.4167 31.6289 46.2095C31.5409 46.0023 31.4951 45.774 31.4951 45.5247C31.4951 45.2753 31.5409 45.0506 31.6289 44.8399C31.7169 44.6327 31.8401 44.4501 32.0021 44.2955C32.164 44.141 32.3506 44.0216 32.5654 43.9373C32.7801 43.8531 33.016 43.8109 33.2695 43.8109C33.523 43.8109 33.7448 43.8531 33.9596 43.9338C34.1743 44.0146 34.3574 44.1375 34.5053 44.3026L34.2764 44.5308C34.1391 44.3904 33.9842 44.2885 33.8187 44.2253C33.6533 44.1621 33.4702 44.1305 33.2766 44.1305C33.0829 44.1305 32.8858 44.1656 32.7097 44.2323C32.5372 44.3026 32.3858 44.4009 32.2556 44.5273C32.1253 44.6538 32.0267 44.8013 31.9528 44.9698C31.8789 45.1384 31.8437 45.3245 31.8437 45.5282C31.8437 45.7319 31.8789 45.918 31.9528 46.0866C32.0267 46.2551 32.1253 46.4026 32.2556 46.5291C32.3858 46.6555 32.5372 46.7538 32.7097 46.8241C32.8858 46.8943 33.0724 46.9259 33.2766 46.9259C33.4808 46.9259 33.6497 46.8943 33.8187 46.8311C33.9877 46.7679 34.1391 46.6625 34.2764 46.522L34.5053 46.7503C34.3574 46.9154 34.1743 47.0383 33.9596 47.1226C33.7448 47.2069 33.5124 47.249 33.2625 47.249V47.2385Z" fill="#1E344F"/>
<path d="M36.9846 47.2385C36.7311 47.2385 36.4952 47.1963 36.2769 47.112C36.0586 47.0277 35.872 46.9048 35.7101 46.7503C35.5517 46.5958 35.4249 46.4132 35.3369 46.206C35.2489 45.9988 35.2031 45.7705 35.2031 45.5247C35.2031 45.2789 35.2489 45.0506 35.3369 44.8434C35.4249 44.6362 35.5481 44.4536 35.7101 44.2991C35.872 44.1445 36.0586 44.0216 36.2734 43.9373C36.4882 43.8531 36.7276 43.8109 36.9846 43.8109C37.2416 43.8109 37.4739 43.8531 37.6887 43.9373C37.9035 44.0216 38.0936 44.141 38.252 44.2955C38.4104 44.4501 38.5372 44.6327 38.6252 44.8399C38.7132 45.0506 38.759 45.2789 38.759 45.5247C38.759 45.7705 38.7132 45.9988 38.6252 46.2095C38.5372 46.4202 38.4139 46.5993 38.252 46.7538C38.09 46.9083 37.9035 47.0277 37.6887 47.112C37.4739 47.1963 37.2381 47.2385 36.9846 47.2385ZM36.9846 46.9189C37.1888 46.9189 37.3754 46.8838 37.5479 46.817C37.7204 46.7468 37.8718 46.6485 37.9985 46.522C38.1252 46.3956 38.2238 46.2481 38.2942 46.0796C38.3647 45.911 38.3999 45.7249 38.3999 45.5212C38.3999 45.3175 38.3647 45.1314 38.2942 44.9628C38.2238 44.7942 38.1252 44.6467 37.9985 44.5203C37.8718 44.3939 37.7204 44.2955 37.5479 44.2253C37.3754 44.1551 37.1888 44.1235 36.9846 44.1235C36.7804 44.1235 36.5938 44.1586 36.4177 44.2253C36.2417 44.292 36.0938 44.3939 35.9636 44.5203C35.8333 44.6467 35.7347 44.7942 35.6643 44.9628C35.5939 45.1314 35.5587 45.3175 35.5587 45.5212C35.5587 45.7249 35.5939 45.904 35.6643 46.076C35.7347 46.2481 35.8368 46.3956 35.9636 46.522C36.0938 46.6485 36.2452 46.7468 36.4177 46.817C36.5903 46.8873 36.7804 46.9189 36.9846 46.9189Z" fill="#1E344F"/>
<path d="M39.9414 47.2103V43.8354H40.2935V46.9013H42.339V43.8354H42.691V47.2103H39.9414ZM42.8952 48.0005V47.112L42.9868 47.2068H42.339V46.8978H43.2297V47.997H42.8952V48.0005Z" fill="#1E344F"/>
<path d="M44.2686 47.2103V43.8354H47.1167V47.2103H46.7647V44.0462L46.8562 44.141H44.5326L44.6241 44.0462V47.2103H44.2721H44.2686Z" fill="#1E344F"/>
<path d="M50.0666 47.2385C49.8131 47.2385 49.5772 47.1963 49.3589 47.112C49.1407 47.0277 48.9541 46.9048 48.7921 46.7503C48.6337 46.5958 48.507 46.4132 48.4189 46.206C48.3309 45.9988 48.2852 45.7705 48.2852 45.5247C48.2852 45.2789 48.3309 45.0506 48.4189 44.8434C48.507 44.6362 48.6302 44.4536 48.7921 44.2991C48.9541 44.1445 49.1407 44.0216 49.3554 43.9373C49.5702 43.8531 49.8096 43.8109 50.0666 43.8109C50.3236 43.8109 50.556 43.8531 50.7707 43.9373C50.9855 44.0216 51.1756 44.141 51.334 44.2955C51.4925 44.4501 51.6192 44.6327 51.7072 44.8399C51.7952 45.0506 51.841 45.2789 51.841 45.5247C51.841 45.7705 51.7952 45.9988 51.7072 46.2095C51.6192 46.4202 51.496 46.5993 51.334 46.7538C51.1721 46.9083 50.9855 47.0277 50.7707 47.112C50.556 47.1963 50.3201 47.2385 50.0666 47.2385ZM50.0666 46.9189C50.2708 46.9189 50.4574 46.8838 50.6299 46.817C50.8024 46.7468 50.9538 46.6485 51.0805 46.522C51.2073 46.3956 51.3059 46.2481 51.3763 46.0796C51.4467 45.911 51.4819 45.7249 51.4819 45.5212C51.4819 45.3175 51.4467 45.1314 51.3763 44.9628C51.3059 44.7942 51.2073 44.6467 51.0805 44.5203C50.9538 44.3939 50.8024 44.2955 50.6299 44.2253C50.4574 44.1551 50.2708 44.1235 50.0666 44.1235C49.8624 44.1235 49.6758 44.1586 49.4998 44.2253C49.3237 44.292 49.1759 44.3939 49.0456 44.5203C48.9154 44.6467 48.8168 44.7942 48.7464 44.9628C48.676 45.1314 48.6407 45.3175 48.6407 45.5212C48.6407 45.7249 48.676 45.904 48.7464 46.076C48.8168 46.2481 48.9189 46.3956 49.0456 46.522C49.1759 46.6485 49.3273 46.7468 49.4998 46.817C49.6723 46.8873 49.8624 46.9189 50.0666 46.9189Z" fill="#1E344F"/>
<path d="M52.6822 47.2385C52.6365 47.2385 52.5942 47.2385 52.552 47.2315C52.5097 47.2244 52.4639 47.2174 52.4111 47.2034L52.4393 46.8838C52.4956 46.8978 52.5484 46.9013 52.5977 46.9013C52.7421 46.9013 52.8583 46.8452 52.9498 46.7293C53.0413 46.6134 53.1047 46.4378 53.1505 46.199C53.1962 45.9602 53.2244 45.6511 53.2385 45.2754L53.2878 43.8285H55.5832V47.2034H55.2312V44.0392L55.3227 44.134H53.5166L53.6046 44.0322L53.5624 45.2613C53.5483 45.5985 53.5237 45.8899 53.4884 46.1358C53.4532 46.3816 53.4004 46.5853 53.3335 46.7468C53.2666 46.9084 53.1786 47.0313 53.073 47.1085C52.9674 47.1858 52.8371 47.2279 52.6857 47.2279L52.6822 47.2385Z" fill="#1E344F"/>
<path d="M57.0518 47.2103V43.8354H57.4029V47.2103H57.0518Z" fill="#1E344F"/>
<path d="M59.5484 47.2104V44.0463L59.6434 44.1411H58.3584V43.832H61.0904V44.1411H59.8089L59.9004 44.0463V47.2104H59.5484Z" fill="#1E344F"/>
<path d="M62.0479 47.2103V43.8354H62.3999V46.6309L64.5651 43.8354H64.889V47.2103H64.5369V44.4184L62.3717 47.2103H62.0479Z" fill="#1E344F"/>
<path d="M66.3564 47.2103V43.8354H66.705V47.2103H66.3564ZM66.5994 45.6616V45.349H67.6591V45.6616H66.5994ZM67.6908 45.5598L67.3633 45.5036L68.6237 43.8354H69.011L67.6908 45.5633V45.5598ZM68.673 47.2103L67.3739 45.5282L67.6626 45.3561L69.0849 47.2138H68.673V47.2103Z" fill="#1E344F"/>
<path d="M69.9658 47.2103V43.8354H70.3179V46.6309L72.4831 43.8354H72.807V47.2103H72.4549V44.4184L70.2897 47.2103H69.9658Z" fill="#1E344F"/>
<path d="M76.866 46.6028L75.4014 43.8354H75.7816L77.0561 46.3078L76.8624 46.6028H76.866ZM75.8133 46.8767C75.9787 46.9399 76.1337 46.9575 76.278 46.9224C76.4224 46.8872 76.5561 46.7749 76.6794 46.5817L76.8448 46.3218L76.88 46.2797L78.1756 43.8354H78.5347L76.9962 46.6625C76.8941 46.8591 76.7709 47.0031 76.6301 47.1015C76.4892 47.1998 76.3414 47.2489 76.1865 47.256C76.0316 47.263 75.8731 47.2349 75.7147 47.1682L75.8168 46.8802L75.8133 46.8767Z" fill="#1E344F"/>
<path d="M79.415 47.2103V43.8354H79.7636V47.2103H79.415ZM79.6544 45.6616V45.349H80.7141V45.6616H79.6544ZM80.7494 45.5598L80.4219 45.5036L81.6823 43.8354H82.0696L80.7494 45.5633V45.5598ZM81.7316 47.2103L80.4325 45.5282L80.7212 45.3561L82.1435 47.2138H81.7316V47.2103Z" fill="#1E344F"/>
<path d="M83.0201 47.2103V43.8354H84.2875C84.5727 43.8354 84.8192 43.8811 85.0269 43.9724C85.2311 44.0637 85.393 44.1972 85.5022 44.3692C85.6148 44.5413 85.6676 44.7485 85.6676 44.9944C85.6676 45.2402 85.6113 45.4368 85.5022 45.6089C85.3895 45.781 85.2311 45.9145 85.0269 46.0058C84.8192 46.1006 84.5727 46.1462 84.2875 46.1462H83.2173L83.3757 45.9777V47.2103H83.0166H83.0201ZM83.3792 46.0058L83.2208 45.8337H84.2805C84.6185 45.8337 84.8755 45.7599 85.0515 45.6159C85.2276 45.4685 85.3156 45.2648 85.3156 44.9979C85.3156 44.731 85.2276 44.5203 85.0515 44.3728C84.8755 44.2253 84.6185 44.1515 84.2805 44.1515H83.2208L83.3792 43.9829V46.0128V46.0058Z" fill="#1E344F"/>
<path d="M86.0617 47.2103L87.6073 43.8354H87.9594L89.5049 47.2103H89.1282L87.7059 44.0426H87.8502L86.4279 47.2103H86.0547H86.0617ZM86.6708 46.3078L86.7764 46.0198H88.7445L88.8501 46.3078H86.6708Z" fill="#1E344F"/>
<path d="M90.2126 43.4493C90.1527 43.4493 90.107 43.4317 90.0647 43.3931C90.026 43.3545 90.0049 43.3053 90.0049 43.2421C90.0049 43.1789 90.026 43.1297 90.0647 43.0911C90.1035 43.0524 90.1527 43.0314 90.2126 43.0314C90.2689 43.0314 90.3147 43.0489 90.3569 43.0911C90.3992 43.1297 90.4203 43.1789 90.4203 43.2421C90.4203 43.3053 90.3992 43.3545 90.3569 43.3931C90.3147 43.4317 90.2654 43.4493 90.2126 43.4493ZM90.4626 47.2104V43.8356H90.8217V47.2104H90.4626ZM91.0716 43.4493C91.0153 43.4493 90.9695 43.4317 90.9273 43.3931C90.885 43.3545 90.8639 43.3053 90.8639 43.2421C90.8639 43.1789 90.885 43.1297 90.9273 43.0911C90.9695 43.0524 91.0188 43.0314 91.0716 43.0314C91.1315 43.0314 91.1773 43.0489 91.2195 43.0911C91.2582 43.1297 91.2793 43.1789 91.2793 43.2421C91.2793 43.3053 91.2582 43.3545 91.2195 43.3931C91.1808 43.4317 91.1315 43.4493 91.0716 43.4493Z" fill="#1E344F"/>
<path d="M92.6277 47.2103H92.2686V43.8354H92.6277V47.2103ZM94.7823 45.6511H92.5925V45.3385H94.7823V45.6511ZM94.7471 43.8354H95.0991V47.2103H94.7471V43.8354Z" fill="#1E344F"/>
<path d="M96.5713 47.2103V43.8354H96.9234V46.6309L99.0885 43.8354H99.4124V47.2103H99.0604V44.4184L96.8952 47.2103H96.5713Z" fill="#1E344F"/>
<path d="M93.529 25.9944H90.0717H88.8817L87.1602 28.9759L90.6104 28.9794V28.9759L91.7018 28.9794H91.8003L93.529 25.9944Z" fill="#10A8EC"/>
<path d="M83.6426 25.9909H82.7977V25.9944H76.5662L73.4574 20.6256L75.2846 17.4689L78.3934 22.8377L80.115 19.8636L76.9992 14.4807L78.2877 12.251C78.5518 11.791 78.5518 11.2257 78.2877 10.7657C77.7139 9.77552 76.281 9.77552 75.7071 10.7657L75.2776 11.5101L73.8482 13.9786L73.5595 14.4807L71.7323 17.6409L70.0107 20.615L74.8516 28.979H83.6497C84.1848 28.979 84.6777 28.6946 84.9453 28.2311C85.5226 27.2374 84.8009 25.9909 83.6497 25.9909H83.6426Z" fill="#10A8EC"/>
<path d="M70.0848 14.4878L70.6762 13.466L68.9547 10.4954L67.2366 13.466L66.6416 14.4878L68.3632 17.4583L70.0848 14.4878Z" fill="#10A8EC"/>
<path d="M94.3072 6.14478C93.1559 6.14478 92.4377 7.38779 93.0116 8.3815L93.4376 9.11537L96.5534 14.4983L93.4552 19.853H89.7937L92.8989 14.4877H89.4558L86.3435 19.8671H83.7629C83.2313 19.8671 82.7384 20.1515 82.4744 20.6115C81.9005 21.6017 82.6187 22.8377 83.7629 22.8377H84.6219H86.3435H91.7266H95.1662L100 14.4912L95.5993 6.88918C95.3317 6.42919 94.8388 6.14478 94.3072 6.14478Z" fill="#10A8EC"/>
<path d="M87.6355 11.3451C87.9031 11.8051 88.3924 12.0895 88.924 12.086C90.0718 12.086 90.7864 10.8465 90.2126 9.85984L89.7831 9.11544L88.5614 7.00161L88.065 6.14484L86.2308 2.9741L84.5092 0H74.831L70.4302 7.59854C70.1626 8.05852 70.1626 8.62736 70.4302 9.09086C71.004 10.0846 72.444 10.0846 73.0178 9.09086L73.4438 8.35699L74.1268 7.17718L76.5596 2.9741H82.77L84.6042 6.14133H78.3868L80.1084 9.11544H86.3399L87.6284 11.3416L87.6355 11.3451Z" fill="#10A8EC"/>
<path d="M94.0959 4L92.3778 1.02899L91.7863 0.00354004H88.3467L90.0647 2.97806L90.6597 4H94.0959Z" fill="#10A8EC"/>
<path d="M99.2501 32.4482H0.749894C0.335739 32.4482 0 32.7831 0 33.1963V33.3262C0 33.7393 0.335739 34.0742 0.749894 34.0742H99.2501C99.6643 34.0742 100 33.7393 100 33.3262V33.1963C100 32.7831 99.6643 32.4482 99.2501 32.4482Z" fill="#10A8EC"/>
</g>
<defs>
<clipPath id="clip0_948_6361">
<rect width="100" height="48" fill="white"/>
</clipPath>
</defs>
</svg>
