<svg width="40" height="40" viewBox="0 0 40 40" fill="none" xmlns="http://www.w3.org/2000/svg">
<rect width="39.8914" height="39.8914" rx="19.9457" fill="url(#paint0_linear_576_16292)"/>
<path d="M8.1084 31.8917L9.85206 25.4083C8.44584 22.8827 7.99907 19.9356 8.59373 17.1077C9.1884 14.2798 10.7846 11.7608 13.0895 10.013C15.3943 8.26517 18.2532 7.40577 21.1415 7.59249C24.0298 7.77921 26.7538 8.99951 28.8136 11.0295C30.8734 13.0594 32.1309 15.7629 32.3553 18.6438C32.5797 21.5246 31.7559 24.3897 30.0352 26.7131C28.3144 29.0366 25.8122 30.6626 22.9875 31.2928C20.1628 31.923 17.2052 31.5152 14.6574 30.1441L8.1084 31.8917ZM14.9732 27.718L15.3782 27.9578C17.2237 29.0498 19.3791 29.5017 21.5086 29.2431C23.6381 28.9844 25.6221 28.0298 27.1514 26.5279C28.6807 25.026 29.6694 23.0613 29.9635 20.9398C30.2575 18.8184 29.8404 16.6594 28.777 14.7993C27.7137 12.9393 26.0639 11.4826 24.0848 10.6564C22.1056 9.83018 19.9083 9.68076 17.8352 10.2314C15.7621 10.7821 13.9297 12.002 12.6236 13.7009C11.3174 15.3998 10.6109 17.4824 10.6141 19.624C10.6123 21.3998 11.1042 23.1412 12.0351 24.6545L12.2891 25.0725L11.3143 28.6911L14.9732 27.718Z" fill="white"/>
<path fill-rule="evenodd" clip-rule="evenodd" d="M24.8038 21.2889C24.5664 21.0977 24.2884 20.9632 23.9909 20.8955C23.6935 20.8278 23.3846 20.8287 23.0876 20.8983C22.6414 21.0833 22.3531 21.7824 22.0647 22.1319C22.0039 22.2157 21.9146 22.2745 21.8135 22.2972C21.7124 22.3199 21.6064 22.305 21.5156 22.2553C19.8819 21.6165 18.5126 20.4451 17.6301 18.9313C17.5548 18.8369 17.5192 18.7169 17.5307 18.5968C17.5422 18.4766 17.6 18.3656 17.6918 18.2871C18.0134 17.9693 18.2495 17.5757 18.3783 17.1426C18.4069 16.6649 18.2973 16.1891 18.0625 15.7719C17.8811 15.187 17.5356 14.6662 17.0671 14.271C16.8255 14.1625 16.5576 14.1261 16.2957 14.1663C16.0338 14.2064 15.7891 14.3213 15.5912 14.4972C15.2476 14.7931 14.9749 15.1623 14.7931 15.5774C14.6113 15.9925 14.5251 16.4431 14.5409 16.8959C14.542 17.1501 14.5742 17.4033 14.637 17.6498C14.7964 18.2418 15.0415 18.8075 15.3647 19.3288C15.5978 19.7282 15.8522 20.1148 16.1267 20.4871C17.0188 21.7097 18.1402 22.7478 19.4286 23.5437C20.0752 23.9482 20.7662 24.277 21.4881 24.5238C22.2379 24.8631 23.0659 24.9934 23.8839 24.9007C24.35 24.8303 24.7916 24.6465 25.1699 24.3657C25.5482 24.0849 25.8515 23.7155 26.0532 23.2901C26.1717 23.0332 26.2077 22.7459 26.1562 22.4677C26.0326 21.8989 25.2706 21.5631 24.8038 21.2889Z" fill="white"/>
<defs>
<linearGradient id="paint0_linear_576_16292" x1="22.7027" y1="41.0811" x2="4.05405" y2="-8.54254e-07" gradientUnits="userSpaceOnUse">
<stop stop-color="#00D95F"/>
<stop offset="1" stop-color="#07FF74"/>
</linearGradient>
</defs>
</svg>
