<svg width="48" height="48" viewBox="0 0 48 48" fill="none" xmlns="http://www.w3.org/2000/svg">
<path d="M31.2928 35.1152C32.1801 35.1918 33.0232 35.2218 33.5931 34.7542C34.3127 34.1634 34.1911 33.1972 34.1257 32.6778C34.0925 32.4139 34.0923 32.3022 34.0973 32.2553C34.3365 31.7987 34.3101 31.2924 34.2299 31.0547C34.2228 31.0335 34.2144 31.013 34.2048 30.9928C34.1581 30.8947 34.1016 30.8 34.0355 30.7091C34.1167 30.6289 34.1893 30.5344 34.2486 30.4205C34.438 30.0575 34.4218 29.639 34.1966 29.1075C34.146 28.8521 34.1687 28.8058 34.1764 28.7902C34.2533 28.6333 34.4189 28.5726 34.7786 28.4712C35.1954 28.3538 35.893 28.1573 35.9991 27.3478C36.0831 26.7062 35.8085 26.2904 35.5429 25.8883C35.5107 25.8397 35.4773 25.7892 35.4414 25.7337C34.3683 24.091 34.1332 23.3573 34.1249 23.0311C34.1186 22.7839 34.2029 22.6633 34.3943 22.4141C34.6796 22.0429 35.0704 21.5344 34.89 20.4913C34.8115 20.0392 34.6327 19.3979 34.4431 18.7191C34.2287 17.9507 33.9047 16.7893 33.9371 16.4945C33.9595 16.2904 34.0475 16.1284 34.1492 15.9408C34.3844 15.5073 34.7063 14.9136 34.0627 13.9537C34.0539 13.9407 34.0447 13.9282 34.0349 13.916C32.3182 11.7675 29.245 10.3658 25.6037 10.0703C22.0882 9.78469 18.6809 10.6134 16.4902 12.2865C14.4245 13.8637 13.0102 16.14 12.5078 18.6962C11.8027 22.2867 13.3872 25.1842 14.7851 27.7406C15.2437 28.5788 15.6768 29.371 16.0316 30.1723C16.2713 30.8241 16.7957 32.8767 16.6334 38.0872C16.6286 38.2394 16.6858 38.3869 16.7917 38.4962C16.8977 38.6055 17.0434 38.6672 17.1956 38.6672H27.63C27.7845 38.6672 27.9323 38.6035 28.0385 38.4913C28.1447 38.3792 28.2001 38.2281 28.1917 38.0738C28.1741 37.7556 28.1659 35.7568 28.1729 35.5613C28.2123 35.0789 28.3274 34.765 28.5158 34.6253C29.3826 34.8219 30.3006 34.9846 31.2673 35.1127C31.2758 35.1138 31.2843 35.1146 31.2927 35.1154L31.2928 35.1152ZM24.141 31.8776C23.8675 31.7306 23.5263 31.8331 23.3792 32.1068C23.2322 32.3804 23.3347 32.7215 23.6083 32.8686C24.6935 33.4519 25.9423 33.9401 27.3438 34.33C27.1978 34.6173 27.0895 34.9936 27.0503 35.4862C27.0421 35.6075 27.0455 36.784 27.0553 37.542H17.7735C17.8542 33.933 17.6105 31.1843 17.0801 29.7637C17.0763 29.7534 17.0722 29.7432 17.0677 29.7333C16.6924 28.8831 16.2247 28.0278 15.7724 27.2006C14.4021 24.6949 12.9852 22.104 13.6119 18.9129C14.0612 16.6266 15.3259 14.5908 17.1731 13.1805C19.149 11.6715 22.2667 10.9276 25.5128 11.1915C28.7865 11.4572 31.6358 12.7307 33.1413 14.5996C33.3917 14.978 33.3455 15.0633 33.1604 15.4044C33.0291 15.6466 32.8656 15.948 32.819 16.3715C32.7666 16.848 32.9884 17.6904 33.3597 19.0213C33.5333 19.6436 33.7129 20.2871 33.7816 20.6833C33.8779 21.2401 33.7366 21.4239 33.5024 21.7287C33.2834 22.0136 32.9835 22.4039 33.0004 23.0596C33.0184 23.7749 33.4808 24.7894 34.4981 26.3464C34.5346 26.4028 34.5701 26.4566 34.6043 26.5085C34.8391 26.8638 34.9119 26.9865 34.8837 27.2018C34.8803 27.2275 34.8756 27.2379 34.8757 27.2379C34.8345 27.2869 34.6087 27.3504 34.4738 27.3884C34.0751 27.5007 33.4726 27.6704 33.1663 28.2953C32.9965 28.642 33.0201 28.9859 33.1076 29.3957C33.1158 29.4338 33.1279 29.4712 33.1438 29.5069C33.2738 29.799 33.2537 29.8951 33.2513 29.9005C33.2272 29.9464 33.0083 30.0405 32.8907 30.0911C32.7057 30.1706 32.5774 30.343 32.5541 30.543C32.5309 30.743 32.6164 30.9401 32.7783 31.06C32.7874 31.0667 32.8015 31.0766 32.8204 31.0894C32.882 31.1313 33.0586 31.2513 33.1618 31.4252C33.1661 31.4947 33.1571 31.6372 33.0923 31.7489C33.0843 31.7627 33.0768 31.7768 33.07 31.7913C32.9453 32.0559 32.9544 32.3806 33.0096 32.8184C33.0672 33.2767 33.1007 33.703 32.8794 33.8845C32.65 34.0731 32.0353 34.0498 31.4024 33.9955C28.4745 33.6065 26.0314 32.8939 24.141 31.8776ZM22.4056 12.225C18.0637 12.225 14.5312 15.7575 14.5312 20.0994C14.5312 24.4414 18.0637 27.9738 22.4056 27.9738C26.7475 27.9738 30.2799 24.4413 30.2799 20.0994C30.2799 15.7576 26.7475 12.225 22.4056 12.225ZM22.4056 26.8488C18.684 26.8488 15.6562 23.821 15.6562 20.0994C15.6562 16.3778 18.684 13.35 22.4056 13.35C26.1272 13.35 29.1549 16.3778 29.1549 20.0994C29.1549 23.821 26.1272 26.8488 22.4056 26.8488ZM26.3134 21.1404V16.5062C26.3134 16.1956 26.0615 15.9437 25.7509 15.9437C25.4403 15.9437 25.1884 16.1956 25.1884 16.5062V21.1404C24.4813 21.3766 23.9696 22.0437 23.9696 22.8292C23.9696 23.8114 24.7687 24.6104 25.7509 24.6104C26.7331 24.6104 27.5321 23.8114 27.5321 22.8292C27.5321 22.0437 27.0204 21.3767 26.3134 21.1404ZM25.7509 23.4854C25.3891 23.4854 25.0946 23.191 25.0946 22.8292C25.0946 22.4675 25.3891 22.173 25.7509 22.173C26.1127 22.173 26.4071 22.4675 26.4071 22.8292C26.4071 23.191 26.1127 23.4854 25.7509 23.4854ZM19.6228 18.4166V16.5063C19.6228 16.1957 19.3709 15.9438 19.0603 15.9438C18.7497 15.9438 18.4978 16.1957 18.4978 16.5063V18.4166C17.7938 18.6526 17.2846 19.3171 17.2846 20.0994C17.2846 20.8818 17.7938 21.5464 18.4978 21.7823V23.6925C18.4978 24.0031 18.7497 24.255 19.0603 24.255C19.3709 24.255 19.6228 24.0031 19.6228 23.6925V21.7823C20.3268 21.5464 20.8359 20.8818 20.8359 20.0994C20.8359 19.3171 20.3267 18.6526 19.6228 18.4166ZM19.0603 20.7502C18.7015 20.7502 18.4096 20.4583 18.4096 20.0995C18.4096 19.7407 18.7015 19.4489 19.0603 19.4489C19.4191 19.4489 19.7109 19.7407 19.7109 20.0995C19.7109 20.4583 19.4191 20.7502 19.0603 20.7502ZM24.1869 15.7812C24.1869 14.799 23.3879 14 22.4057 14C21.4235 14 20.6244 14.799 20.6244 15.7812C20.6244 16.5667 21.1361 17.2338 21.8432 17.47V25.0991C21.8432 25.4097 22.0951 25.6616 22.4057 25.6616C22.7163 25.6616 22.9682 25.4097 22.9682 25.0991V17.47C23.6753 17.2339 24.1869 16.5667 24.1869 15.7812ZM22.4057 16.4375C22.0439 16.4375 21.7494 16.143 21.7494 15.7812C21.7494 15.4194 22.0439 15.125 22.4057 15.125C22.7675 15.125 23.0619 15.4194 23.0619 15.7812C23.0619 16.143 22.7675 16.4375 22.4057 16.4375ZM28.6418 5.16938C28.7207 4.86891 29.0286 4.68909 29.3287 4.76831C32.6011 5.62791 35.6351 7.32028 38.1026 9.66244C40.2752 11.7247 41.9679 14.2527 43.0454 17.0272L43.068 16.9604C43.1676 16.666 43.4871 16.5084 43.7811 16.6078C44.0754 16.7074 44.2331 17.0267 44.1337 17.3209L43.578 18.9629C43.5212 19.1309 43.3885 19.2622 43.22 19.3173C43.1629 19.3359 43.1039 19.3451 43.0452 19.3451C42.9308 19.3451 42.8176 19.3102 42.7218 19.2427L41.3117 18.2516C41.0575 18.073 40.9963 17.7222 41.175 17.4681C41.3528 17.2147 41.7023 17.1531 41.9561 17.3298C39.7396 11.7337 34.8897 7.39209 29.0429 5.85619C28.7424 5.77725 28.5629 5.46975 28.6418 5.16928L28.6418 5.16938ZM4.88475 18.2075C6.76528 12.2883 11.281 7.56169 17.0652 5.39175L16.9978 5.36812C16.7047 5.26537 16.5503 4.94438 16.653 4.65131C16.7557 4.35825 17.0768 4.20366 17.3698 4.3065L19.0057 4.87978C19.173 4.93837 19.3028 5.07253 19.3561 5.24156C19.4093 5.41078 19.3798 5.59509 19.2762 5.739L18.2699 7.13831C18.16 7.29113 17.9876 7.37241 17.8128 7.37241C17.699 7.37241 17.5842 7.33809 17.4848 7.26656C17.2335 7.08581 17.1757 6.73622 17.3548 6.48422C11.9425 8.55103 7.72134 12.9939 5.95687 18.5481C5.88075 18.7875 5.65941 18.9405 5.42091 18.9405C5.36438 18.9405 5.307 18.9319 5.25047 18.914C4.95441 18.8198 4.79063 18.5036 4.88466 18.2076L4.88475 18.2075ZM43.6931 29.6948C42.7947 32.9775 41.0576 36.0083 38.6695 38.4598C36.5111 40.6754 33.8645 42.3702 30.9702 43.4035L31.0384 43.4287C31.3297 43.5361 31.4789 43.8596 31.3714 44.1511C31.2875 44.3783 31.0725 44.5191 30.8436 44.5191C30.779 44.5191 30.7132 44.5078 30.6489 44.4841L29.0226 43.8841C28.8563 43.8228 28.7286 43.6866 28.678 43.5165C28.6276 43.3466 28.6602 43.1628 28.766 43.0205L29.7952 41.6379C29.9807 41.3888 30.333 41.337 30.5823 41.5225C30.8299 41.707 30.8823 42.0562 30.7007 42.305C36.4659 40.2035 40.9814 35.3417 42.608 29.3978C42.6901 29.0982 42.9994 28.9219 43.299 29.0038C43.5986 29.0858 43.7751 29.3952 43.693 29.6948H43.6931ZM19.6721 43.5046C19.6054 43.7567 19.3777 43.9234 19.1287 43.9234C19.081 43.9234 19.0327 43.9174 18.9845 43.9046C12.9488 42.3078 8.00531 38.0078 5.56388 32.2973L5.54353 32.3647C5.47031 32.6083 5.24691 32.7654 5.00503 32.7654C4.9515 32.7654 4.89694 32.7577 4.84294 32.7414C4.54547 32.652 4.37672 32.3383 4.46616 32.0408L4.96519 30.3807C5.01628 30.2108 5.14434 30.0751 5.31094 30.0143C5.47753 29.9536 5.66306 29.9748 5.81147 30.0717L7.25466 31.014C7.51472 31.1839 7.58803 31.5323 7.41806 31.7925C7.24856 32.0524 6.90094 32.1257 6.64069 31.9566C8.96119 37.2995 13.608 41.3184 19.2722 42.8169C19.5726 42.8964 19.7515 43.2043 19.6722 43.5046H19.6721ZM21.9983 8.11191H26.349C27.0485 8.11191 27.6174 7.54294 27.6174 6.84347V2.49272C27.6174 1.79325 27.0485 1.22428 26.349 1.22428H21.9983C21.2989 1.22428 20.7299 1.79325 20.7299 2.49272V6.84338C20.7299 7.54284 21.2989 8.11191 21.9983 8.11191ZM21.8549 2.49272C21.8549 2.415 21.9206 2.34928 21.9983 2.34928H26.349C26.4267 2.34928 26.4924 2.415 26.4924 2.49272V6.84338C26.4924 6.92109 26.4267 6.98681 26.349 6.98681H21.9983C21.9206 6.98681 21.8549 6.92109 21.8549 6.84338V2.49272ZM25.1146 39.6866C24.9183 39.3464 24.5665 39.1433 24.1737 39.1433C23.7809 39.1433 23.4295 39.3462 23.2329 39.6864L20.081 45.1459C19.8845 45.486 19.8844 45.8922 20.081 46.2324C20.2774 46.5726 20.629 46.7756 21.0217 46.7756H27.326C27.7187 46.7756 28.0703 46.5726 28.2668 46.2323C28.4631 45.8921 28.4631 45.4861 28.2668 45.1461L25.1148 39.6866H25.1146ZM21.0886 45.6506L24.1737 40.307L27.2589 45.6506H21.0886ZM43.8466 20.6562C41.8148 20.6562 40.1618 22.3092 40.1618 24.341C40.1618 26.3727 41.8148 28.0256 43.8466 28.0256C45.8783 28.0256 47.5312 26.3727 47.5312 24.341C47.5312 22.3092 45.8783 20.6562 43.8466 20.6562ZM43.8466 26.9005C42.4351 26.9005 41.2868 25.7523 41.2868 24.3409C41.2868 22.9295 42.4351 21.7811 43.8466 21.7811C45.2581 21.7811 46.4062 22.9294 46.4062 24.3409C46.4062 25.7524 45.258 26.9005 43.8466 26.9005ZM4.78209 28.8343L8.25169 26.8312C8.42569 26.7307 8.53294 26.5449 8.53294 26.344V22.3378C8.53294 22.1368 8.42569 21.9512 8.25169 21.8507L4.78209 19.8475C4.60819 19.747 4.3935 19.747 4.21959 19.8475L0.75 21.8507C0.576 21.9512 0.46875 22.1369 0.46875 22.3378V26.344C0.46875 26.545 0.576 26.7307 0.75 26.8312L4.21959 28.8343C4.30659 28.8846 4.40372 28.9097 4.50084 28.9097C4.59797 28.9097 4.69509 28.8846 4.78209 28.8343ZM1.59375 26.0193V22.6625L4.50084 20.9841L7.40794 22.6625V26.0193L4.50084 27.6977L1.59375 26.0193Z" fill="#116DD8"/>
</svg>
