<svg width="48" height="48" viewBox="0 0 48 48" fill="none" xmlns="http://www.w3.org/2000/svg">
<path d="M28.1047 15.1632C28.1047 14.9044 28.3147 14.6945 28.5735 14.6945H40.8229C41.0817 14.6945 41.2916 14.9044 41.2916 15.1632C41.2916 15.4221 41.0817 15.632 40.8229 15.632H28.5735C28.3147 15.632 28.1047 15.4221 28.1047 15.1632ZM28.5735 12.9632H40.8229C41.0817 12.9632 41.2916 12.7533 41.2916 12.4944C41.2916 12.2356 41.0817 12.0257 40.8229 12.0257H28.5735C28.3147 12.0257 28.1047 12.2356 28.1047 12.4944C28.1047 12.7533 28.3147 12.9632 28.5735 12.9632ZM28.5735 18.3008H40.8229C41.0817 18.3008 41.2916 18.0909 41.2916 17.8321C41.2916 17.5733 41.0817 17.3633 40.8229 17.3633H28.5735C28.3147 17.3633 28.1047 17.5733 28.1047 17.8321C28.1047 18.0909 28.3147 18.3008 28.5735 18.3008ZM46.1116 28.7103C46.2358 29.4429 46.0594 30.036 45.5723 30.5231C45.4381 30.6573 45.2956 30.767 45.1447 30.8543L46.7455 34.2342C46.8252 34.4024 46.7978 34.6017 46.6759 34.7423C46.5539 34.8827 46.3603 34.9379 46.1827 34.8825L44.5386 34.3709L43.7397 35.8962C43.6584 36.0514 43.498 36.1476 43.3246 36.1476C43.3138 36.1476 43.303 36.1472 43.2922 36.1464C43.1065 36.1336 42.9461 36.0122 42.8832 35.8371L41.6203 32.3161C41.4476 32.3638 41.2644 32.3884 41.0692 32.3884C40.8794 32.3884 40.701 32.3652 40.5326 32.3201L39.2746 35.8422C39.2121 36.0174 39.0518 36.139 38.8661 36.1522C38.8551 36.153 38.844 36.1534 38.833 36.1534C38.6599 36.1534 38.4996 36.0576 38.4182 35.9026L37.6174 34.3783L36.2168 34.8162V35.358C36.2168 35.7369 36.3625 36.0544 36.65 36.3013C36.9423 36.5524 37.1033 36.9066 37.1033 37.2986V37.7801C37.6651 37.9506 38.0753 38.4729 38.0753 39.0896V39.5207H38.3395C38.8472 39.5207 39.2602 39.9337 39.2602 40.4413V42.0401H40.5199C41.0275 42.0401 41.4405 42.4531 41.4405 42.9608V44.5764C41.4405 45.0841 41.0275 45.4971 40.5199 45.4971H1.48303C0.975469 45.4971 0.5625 45.0841 0.5625 44.5764V42.9608C0.5625 42.4531 0.975469 42.0401 1.48303 42.0401H2.74275V40.4413C2.74275 39.9337 3.15572 39.5207 3.66337 39.5207H3.92756V39.0896C3.92756 38.4729 4.33772 37.9507 4.89956 37.7801V37.2986C4.89956 36.9068 5.06053 36.5527 5.35284 36.3013C5.64038 36.0543 5.78616 35.7369 5.78616 35.358V24.3718C5.78616 23.9929 5.64038 23.6754 5.35294 23.4284C5.06063 23.1773 4.89966 22.8231 4.89966 22.4312V21.9497C4.33791 21.7793 3.92766 21.257 3.92766 20.6402V20.2091H1.48303C0.975375 20.2091 0.5625 19.7962 0.5625 19.2885V17.6728C0.5625 17.1652 0.975469 16.7522 1.48303 16.7522H1.92534L20.5328 8.68154V2.97179C20.5328 2.71294 20.7427 2.50304 21.0015 2.50304H26.224C26.4048 2.50304 26.5694 2.60691 26.6472 2.77013C26.7249 2.93335 26.702 3.12666 26.5882 3.26701L25.5658 4.52804L26.5882 5.78897C26.702 5.92941 26.7249 6.12272 26.6472 6.28585C26.5694 6.44897 26.4048 6.55294 26.224 6.55294H21.4703V8.68154L24.9974 10.2113V9.54113C24.9974 9.28229 25.2073 9.07238 25.4662 9.07238H43.9301C44.189 9.07238 44.3989 9.28229 44.3989 9.54113V20.9489C44.8479 20.992 45.2354 21.1802 45.5723 21.5169C46.0593 22.0039 46.2357 22.5969 46.1117 23.3297C46.042 23.7409 46.197 24.1151 46.5369 24.3566C47.1429 24.787 47.4375 25.3311 47.4375 26.0199C47.4375 26.7088 47.1429 27.2528 46.5369 27.6833C46.1971 27.9248 46.042 28.299 46.1116 28.7102V28.7103ZM21.4703 5.61544H25.2405L24.5981 4.82326C24.4586 4.65122 24.4586 4.40494 24.5981 4.23282L25.2405 3.44054H21.4703V5.61544ZM25.9349 28.323H36.0222C35.9731 28.0694 35.8304 27.8459 35.6016 27.6833C35.0826 27.3147 34.7927 26.8623 34.72 26.3073H28.5736C28.3148 26.3073 28.1048 26.0974 28.1048 25.8385C28.1048 25.5797 28.3148 25.3698 28.5736 25.3698H34.8037C34.9369 24.9764 35.2007 24.6415 35.6017 24.3567C35.854 24.1775 36.0039 23.9248 36.0362 23.6384H28.5736C28.3148 23.6384 28.1048 23.4285 28.1048 23.1697C28.1048 22.9108 28.3148 22.7009 28.5736 22.7009H35.9977C36.0388 22.2473 36.2269 21.8564 36.5662 21.517C36.8648 21.2184 37.2035 21.037 37.5895 20.9696H28.5736C28.3148 20.9696 28.1048 20.7597 28.1048 20.5009C28.1048 20.242 28.3148 20.0321 28.5736 20.0321H39.8994C40.2338 19.7776 40.6207 19.6518 41.0693 19.6518C41.7581 19.6518 42.3022 19.9464 42.7327 20.5523C42.9142 20.8078 43.1707 20.9587 43.4615 20.9884V10.0099H25.935V28.323H25.9349ZM38.3241 20.9696C38.3424 20.9723 38.3605 20.9745 38.3791 20.9776C38.5204 21.0015 38.6568 20.9971 38.7854 20.9696H38.3241ZM35.2795 35.3578V29.2605H33.5116V35.3578C33.5116 36.013 33.2489 36.5852 32.7518 37.0121C32.694 37.0618 32.625 37.1519 32.625 37.2984V37.7209H36.166V37.2984C36.166 37.1519 36.0971 37.062 36.0393 37.0122C35.5422 36.585 35.2795 36.013 35.2795 35.3578ZM31.6876 37.7799V37.2984C31.6876 36.9066 31.8486 36.5525 32.1409 36.3011C32.4284 36.0541 32.5742 35.7367 32.5742 35.3578V29.2605H27.2878V35.3578C27.2878 35.7368 27.4336 36.0542 27.721 36.3011C28.0133 36.5521 28.1743 36.9063 28.1743 37.2984V37.7799C28.7361 37.9504 29.1463 38.4728 29.1463 39.0894V39.5205H30.7157V39.0894C30.7157 38.4728 31.1258 37.9505 31.6876 37.7799ZM11.2876 39.0894V39.5205H12.8571V39.0894C12.8571 38.4728 13.2673 37.9505 13.8291 37.7799V37.2984C13.8291 36.9066 13.99 36.5525 14.2822 36.3011C14.5698 36.0541 14.7156 35.7367 14.7156 35.3578V24.3716C14.7156 23.9927 14.5698 23.6753 14.2823 23.4283C13.99 23.1771 13.8291 22.8229 13.8291 22.431V21.9495C13.2673 21.7791 12.8571 21.2568 12.8571 20.64V20.2089H11.2876V20.64C11.2876 21.2567 10.8774 21.779 10.3157 21.9495V22.431C10.3157 22.8173 10.1504 23.1808 9.86222 23.4283C9.57487 23.6752 9.42919 23.9926 9.42919 24.3716V35.3578C9.42919 35.7368 9.57487 36.0542 9.86231 36.3011C10.1546 36.5522 10.3157 36.9064 10.3157 37.2984V37.7799C10.8774 37.9504 11.2876 38.4728 11.2876 39.0894ZM6.72375 24.3716V35.3578C6.72375 36.013 6.46106 36.5852 5.964 37.0121C5.90616 37.0618 5.83716 37.1519 5.83716 37.2984V37.7209H9.37819V37.2984C9.37819 37.1519 9.30928 37.062 9.25144 37.0122C8.75437 36.585 8.49169 36.013 8.49169 35.3578V24.3716C8.49169 23.7162 8.75437 23.1442 9.25134 22.7172C9.30928 22.6675 9.37819 22.5775 9.37819 22.431V22.0086H5.83706V22.431C5.83706 22.5774 5.90606 22.6675 5.96391 22.7172C6.46088 23.1443 6.72375 23.7164 6.72375 24.3716ZM17.421 35.3578V24.3716C17.421 23.7162 17.6837 23.1442 18.1807 22.7172C18.2386 22.6675 18.3076 22.5775 18.3076 22.431V22.0086H14.7667V22.431C14.7667 22.5775 14.8356 22.6675 14.8935 22.7172C15.3905 23.1443 15.6532 23.7163 15.6532 24.3716V35.3578C15.6532 36.013 15.3906 36.5852 14.8935 37.0121C14.8357 37.0618 14.7667 37.1519 14.7667 37.2984V37.7209H18.3077V37.2984C18.3077 37.1519 18.2388 37.0619 18.1809 37.0122C17.6839 36.5851 17.4212 36.013 17.4212 35.3578H17.421ZM19.2795 20.64V20.2089H13.7947V20.64C13.7947 20.8777 13.988 21.0711 14.2256 21.0711H18.8485C19.0862 21.0711 19.2796 20.8778 19.2796 20.64H19.2795ZM13.7947 39.5204H19.2795V39.0893C19.2795 38.8517 19.0862 38.6583 18.8484 38.6583H14.2255C13.9879 38.6583 13.7946 38.8516 13.7946 39.0893V39.5204H13.7947ZM20.217 39.0893V39.5204H21.7864V39.0893C21.7864 38.4727 22.1965 37.9504 22.7584 37.7798V37.2983C22.7584 36.9066 22.9193 36.5525 23.2116 36.3011C23.4992 36.054 23.645 35.7367 23.645 35.3577V24.3715C23.645 23.9926 23.4992 23.6752 23.2118 23.4282C22.9194 23.1769 22.7585 22.8228 22.7585 22.4309V21.9494C22.1967 21.779 21.7865 21.2567 21.7865 20.6399V20.2088H20.2171V20.6399C20.2171 21.2566 19.8069 21.7789 19.2451 21.9494V22.4309C19.2451 22.8172 19.0798 23.1807 18.7917 23.4282C18.5043 23.6752 18.3586 23.9925 18.3586 24.3715V35.3577C18.3586 35.7367 18.5044 36.0541 18.7918 36.301C19.0841 36.5521 19.2451 36.9063 19.2451 37.2983V37.7798C19.8068 37.9503 20.2171 38.4727 20.2171 39.0893H20.217ZM26.3503 35.3577V29.2604H25.4663C25.2075 29.2604 24.9976 29.0506 24.9976 28.7917V22.0085H23.6959V22.4309C23.6959 22.5773 23.7649 22.6674 23.8227 22.7172C24.3197 23.1443 24.5825 23.7163 24.5825 24.3715V35.3577C24.5825 36.0129 24.3197 36.5851 23.8227 37.012C23.765 37.0617 23.696 37.1518 23.696 37.2983V37.7208H27.2369V37.2983C27.2369 37.1518 27.168 37.0619 27.1102 37.0121C26.6131 36.5849 26.3504 36.0128 26.3504 35.3577H26.3503ZM24.9976 20.2088H22.724V20.6399C22.724 20.8776 22.9173 21.071 23.155 21.071H24.9977V20.2088H24.9976ZM22.724 39.5203H28.2089V39.0893C28.2089 38.8516 28.0156 38.6582 27.7778 38.6582H23.1549C22.9173 38.6582 22.7239 38.8515 22.7239 39.0893V39.5203H22.724ZM4.28137 16.752H24.9974V11.2332L21.0015 9.50007L4.28137 16.752ZM1.5 19.2714H24.9974V17.6895H1.5V19.2714ZM4.86516 20.64C4.86516 20.8777 5.05847 21.0711 5.29622 21.0711H9.91912C10.1568 21.0711 10.3501 20.8778 10.3501 20.64V20.2089H4.86516V20.64ZM4.86516 39.5204H10.35V39.0893C10.35 38.8517 10.1567 38.6583 9.91903 38.6583H5.29612C5.05847 38.6583 4.86506 38.8516 4.86506 39.0893L4.86516 39.5204ZM40.5031 42.9773H1.5V44.5594H40.5031V42.9773ZM38.3228 40.4579H3.68025V42.0398H38.3228V40.4579ZM37.1379 39.0893C37.1379 38.8517 36.9446 38.6583 36.7069 38.6583H32.084C31.8463 38.6583 31.653 38.8516 31.653 39.0893V39.5204H37.1378V39.0893H37.1379ZM36.2169 32.5357L37.0071 30.8617C36.8512 30.7733 36.7043 30.661 36.5662 30.5229C36.4226 30.3794 36.3067 30.2263 36.2168 30.0635V32.5357H36.2169ZM39.7078 31.8424C39.6015 31.7389 39.5008 31.6213 39.4059 31.4877C39.1645 31.1477 38.7902 30.9923 38.3792 31.0624C38.2236 31.0887 38.0747 31.1006 37.9313 31.0998L36.7143 33.6783L37.7108 33.3668C37.9268 33.2993 38.1603 33.3958 38.2657 33.5962L38.7513 34.5204L39.7078 31.8423V31.8424ZM44.2236 31.0996C44.0752 31.1016 43.9209 31.0897 43.7594 31.0624C43.3478 30.9925 42.974 31.1477 42.7326 31.4877C42.6412 31.6163 42.5443 31.7301 42.4424 31.8308L43.405 34.5146L43.8894 33.5897C43.9944 33.3892 44.228 33.2925 44.444 33.3595L45.4409 33.6698L44.2236 31.0997V31.0996ZM46.5 26.0199C46.5 25.6367 46.3535 25.3762 45.9941 25.121C45.3588 24.6698 45.0572 23.9416 45.1874 23.1732C45.2609 22.7387 45.1804 22.4508 44.9094 22.1798C44.6383 21.9087 44.3506 21.8282 43.9162 21.9019C43.1475 22.032 42.4196 21.7304 41.9684 21.0951C41.7132 20.7357 41.4528 20.5892 41.0694 20.5892C40.6861 20.5892 40.4257 20.7357 40.1704 21.0951C39.7192 21.7304 38.9911 22.0319 38.2227 21.9018C37.7883 21.8283 37.5004 21.9087 37.2293 22.1798C36.9583 22.4508 36.8778 22.7386 36.9515 23.173C37.0816 23.9415 36.78 24.6696 36.1447 25.1209C35.7853 25.3761 35.6388 25.6365 35.6388 26.0198C35.6388 26.4032 35.7853 26.6636 36.1447 26.9188C36.78 27.3701 37.0817 28.0983 36.9515 28.8666C36.8779 29.3011 36.9584 29.5888 37.2294 29.8599C37.5005 30.131 37.788 30.2116 38.2228 30.1379C38.3407 30.1179 38.4577 30.1082 38.5728 30.1082C39.2081 30.1082 39.7885 30.4069 40.1706 30.9447C40.4258 31.3041 40.6862 31.4506 41.0695 31.4506C41.4529 31.4506 41.7133 31.3041 41.9685 30.9447C42.4197 30.3094 43.148 30.0079 43.9163 30.138C44.3507 30.2116 44.6386 30.1311 44.9096 29.86C45.1808 29.5889 45.2613 29.3012 45.1876 28.8668C45.0575 28.0984 45.3591 27.3702 45.9943 26.9189C46.3537 26.6636 46.5003 26.4032 46.5003 26.0199H46.5ZM44.3784 26.0199C44.3784 27.8446 42.8939 29.3291 41.0692 29.3291C39.2446 29.3291 37.7601 27.8446 37.7601 26.0199C37.7601 24.1953 39.2445 22.7108 41.0692 22.7108C42.894 22.7108 44.3784 24.1953 44.3784 26.0199ZM43.4409 26.0199C43.4409 24.7121 42.377 23.6483 41.0692 23.6483C39.7615 23.6483 38.6976 24.7122 38.6976 26.0199C38.6976 27.3277 39.7615 28.3916 41.0692 28.3916C42.377 28.3916 43.4409 27.3277 43.4409 26.0199Z" fill="#116DD8"/>
</svg>
