<svg width="48" height="48" viewBox="0 0 48 48" fill="none" xmlns="http://www.w3.org/2000/svg">
<path d="M16.0982 12.065C16.153 12.221 16.153 12.36 16.0982 12.516L15.6235 13.8669C15.4007 14.5009 15.5863 15.1932 16.0962 15.6309L17.1827 16.5636C17.3082 16.6712 17.3778 16.7917 17.4083 16.9542L17.6726 18.3615C17.7966 19.0219 18.3034 19.5288 18.9639 19.6528L19.0961 19.6777L17.3766 26.0948C17.3314 26.2635 17.3837 26.4433 17.5124 26.5614C17.641 26.6796 17.8246 26.7163 17.9888 26.6571L20.4166 25.7796L22.0802 27.7534C22.1704 27.8603 22.3022 27.9201 22.4387 27.9201C22.4725 27.9201 22.5067 27.9164 22.5406 27.9088C22.711 27.8708 22.8462 27.7413 22.8914 27.5726L24.5689 21.3117L24.8094 21.2272C24.9654 21.1724 25.1044 21.1723 25.2604 21.2272L25.5008 21.3117L27.1784 27.5726C27.2236 27.7413 27.3587 27.8708 27.5292 27.9088C27.563 27.9164 27.5972 27.9201 27.6311 27.9201C27.7676 27.9201 27.8993 27.8603 27.9895 27.7534L29.6532 25.7796L32.0809 26.6571C32.2451 26.7164 32.4287 26.6797 32.5574 26.5614C32.686 26.4433 32.7383 26.2635 32.6931 26.0948L30.9737 19.6777L31.1059 19.6528C31.7663 19.5288 32.2732 19.0219 32.3972 18.3615L32.6615 16.9541C32.692 16.7917 32.7616 16.6712 32.887 16.5635L33.9737 15.6309C34.4835 15.1933 34.669 14.501 34.4463 13.8669L33.9716 12.5161C33.9167 12.3601 33.9167 12.221 33.9716 12.065L34.4463 10.714C34.6691 10.0802 34.4836 9.38775 33.9737 8.95003L32.8871 8.0174C32.7616 7.90968 32.692 7.78921 32.6615 7.62674L32.3972 6.21937C32.2732 5.55899 31.7664 5.05209 31.1059 4.92806L29.6987 4.66378C29.5361 4.63321 29.4155 4.56365 29.308 4.43821L28.3754 3.35156C27.9377 2.84174 27.2455 2.65603 26.6115 2.87887L25.2604 3.35362C25.1044 3.40837 24.9654 3.40846 24.8094 3.35362L23.4585 2.87887C22.8244 2.65612 22.1322 2.84165 21.6945 3.35156L20.7619 4.43821C20.6543 4.56365 20.5337 4.63321 20.3713 4.66378L18.9639 4.92806C18.3035 5.05209 17.7966 5.55899 17.6727 6.21937L17.4083 7.62674C17.3778 7.78921 17.3083 7.90968 17.1828 8.01731L16.0962 8.94993C15.5863 9.38756 15.4008 10.08 15.6235 10.7138L16.0982 12.065ZM22.2183 26.4624L20.9229 24.9254C20.7963 24.7753 20.5898 24.7201 20.4051 24.7867L18.5147 25.47L20.0203 19.8511L20.3714 19.917C20.5338 19.9476 20.6544 20.017 20.762 20.1426L21.6946 21.2291C22.0092 21.5959 22.4556 21.7948 22.9173 21.7948C23.0977 21.7948 23.2804 21.7644 23.4585 21.7019L23.4976 21.6881L22.2183 26.4624ZM31.5552 25.47L29.6647 24.7867C29.4802 24.72 29.2735 24.7752 29.1469 24.9254L27.8515 26.4624L26.5722 21.688L26.6114 21.7018C27.2454 21.9245 27.9377 21.7389 28.3753 21.2291L29.3078 20.1426C29.4155 20.0171 29.536 19.9476 29.6985 19.917L30.0495 19.8511L31.5552 25.47ZM16.7067 9.6614L17.7933 8.72887C18.0796 8.48315 18.2601 8.17049 18.3297 7.79981L18.5941 6.39243C18.6478 6.10621 18.8507 5.90324 19.1371 5.84943L20.5444 5.58515C20.9152 5.51549 21.2278 5.33503 21.4735 5.04881L22.4058 3.96224C22.5408 3.80503 22.7202 3.72196 22.9113 3.72196C22.9889 3.72196 23.0684 3.73565 23.1476 3.76349L24.4985 4.23824C24.8545 4.36331 25.2154 4.36331 25.5712 4.23824L26.9222 3.76349C27.1972 3.66684 27.4742 3.74128 27.6639 3.96224L28.5965 5.0489C28.8422 5.33503 29.1547 5.51549 29.5255 5.58524L30.9329 5.84953C31.2191 5.90324 31.4221 6.10621 31.4759 6.39253L31.7402 7.7999C31.8098 8.17059 31.9902 8.48315 32.2765 8.72896L33.3632 9.6615C33.5841 9.85115 33.6585 10.1285 33.5619 10.4032L33.0872 11.7542C32.9622 12.1101 32.9622 12.471 33.0872 12.8269L33.5619 14.1777C33.6585 14.4526 33.5841 14.7299 33.3632 14.9196L32.2764 15.8522C31.9902 16.0979 31.8098 16.4105 31.7402 16.7812L31.4758 18.1885C31.4221 18.4747 31.2191 18.6778 30.9328 18.7315L29.5255 18.9958C29.1547 19.0655 28.8421 19.2459 28.5964 19.5322L27.6638 20.6187C27.4742 20.8397 27.1969 20.9141 26.9222 20.8175L25.5711 20.3427C25.2152 20.2177 24.8543 20.2177 24.4984 20.3427L23.1475 20.8175C22.8727 20.9141 22.5954 20.8398 22.4057 20.6187L21.4732 19.5322C21.2276 19.2458 20.915 19.0654 20.5441 18.9957L19.1369 18.7314C18.8506 18.6777 18.6476 18.4747 18.5939 18.1884L18.3296 16.7812C18.2599 16.4104 18.0796 16.0978 17.7932 15.8522L16.7067 14.9197C16.4857 14.7299 16.4114 14.4526 16.5079 14.1778L16.9826 12.827C17.1077 12.4711 17.1077 12.1101 16.9826 11.7542L16.5078 10.4032C16.4114 10.1284 16.4857 9.85106 16.7067 9.6614ZM25.0349 18.7436C28.5932 18.7436 31.4881 15.8487 31.4881 12.2904C31.4881 8.73215 28.5932 5.83724 25.0349 5.83724C21.4766 5.83724 18.5818 8.73215 18.5818 12.2904C18.5818 15.8487 21.4766 18.7436 25.0349 18.7436ZM25.0349 6.77474C28.0762 6.77474 30.5506 9.24909 30.5506 12.2904C30.5506 15.3318 28.0762 17.8061 25.0349 17.8061C21.9935 17.8061 19.5193 15.3318 19.5193 12.2904C19.5193 9.24909 21.9935 6.77474 25.0349 6.77474ZM45.1718 29.4715C44.6042 28.7792 43.3654 28.4596 41.878 29.3057C36.8807 32.1484 34.0284 33.0955 30.3054 33.4256C30.5513 32.9853 30.6947 32.4448 30.6783 31.8855C30.6406 30.5844 29.6765 29.1845 27.0844 29.1574L15.9801 29.041C14.3254 28.9621 11.7813 29.6983 9.78559 31.2487V30.8625C9.78559 29.5408 8.71027 28.4655 7.38849 28.4655H4.83362C3.51184 28.4655 2.43652 29.5408 2.43652 30.8625V42.817C2.43652 44.1388 3.51184 45.214 4.83362 45.214H7.38849C8.71027 45.214 9.78559 44.1387 9.78559 42.817V42.1628C10.1667 41.9704 12.6737 40.7356 14.4922 40.617L26.3737 40.7468C29.1491 40.921 32.7513 40.03 36.519 38.2381C39.9503 36.606 43.0365 34.4351 44.7744 32.431C45.6561 31.4141 45.8121 30.2525 45.1718 29.4715ZM8.84809 42.8169C8.84809 43.6218 8.19334 44.2764 7.38849 44.2764H4.83362C4.02877 44.2764 3.37402 43.6218 3.37402 42.8169V30.8625C3.37402 30.0577 4.02877 29.403 4.83362 29.403H7.38849C8.19334 29.403 8.84809 30.0577 8.84809 30.8625V42.8169ZM44.0661 31.8167C40.6715 35.7312 32.0449 40.1702 26.421 39.8105C26.4127 39.8099 26.4045 39.8095 26.3962 39.8094L14.4851 39.6792C14.4737 39.6791 14.4624 39.6794 14.4511 39.6802C12.7885 39.7826 10.713 40.6803 9.78568 41.1192V32.4696L9.78962 32.4738C11.8707 30.5377 14.6685 29.915 15.9436 29.9779C15.9496 29.9782 15.9556 29.9783 15.9616 29.9784L27.0748 30.0949C28.7364 30.1123 29.7083 30.7748 29.7414 31.9128C29.7651 32.7307 29.2606 33.4944 28.8461 33.5228L28.8462 33.5239C27.3785 33.5954 25.742 33.6054 23.7858 33.6173C22.9174 33.6226 22.0194 33.628 21.0348 33.6394C20.776 33.6424 20.5685 33.8546 20.5715 34.1135C20.5745 34.3705 20.7838 34.5768 21.0402 34.5768H21.0457C22.0277 34.5654 22.9245 34.56 23.7916 34.5548C25.7532 34.5429 27.4102 34.5328 28.9104 34.4578V34.4582C28.9127 34.458 28.9148 34.4576 28.9171 34.4575C33.4635 34.2296 36.5695 33.4042 42.3418 30.1207C43.3547 29.5447 44.129 29.6782 44.4472 30.0661C44.7827 30.4755 44.6332 31.1628 44.0661 31.8167ZM22.0518 12.6219C21.8687 12.4388 21.8687 12.142 22.0518 11.959C22.2349 11.776 22.5316 11.776 22.7147 11.959L24.151 13.3953L27.355 10.1913C27.5382 10.0083 27.8349 10.0084 28.0179 10.1913C28.201 10.3744 28.2009 10.6712 28.0179 10.8542L24.4825 14.3896C24.3909 14.4811 24.271 14.5268 24.151 14.5268C24.031 14.5268 23.9111 14.4811 23.8195 14.3896L22.0518 12.6219Z" fill="#116DD8"/>
</svg>
