<svg width="48" height="48" viewBox="0 0 48 48" fill="none" xmlns="http://www.w3.org/2000/svg">
<path d="M9.82135 18.0528H6.75638C6.10304 18.0528 5.57129 18.5845 5.57129 19.2379V22.3099C5.57129 22.9632 6.10304 23.495 6.75638 23.495H9.82135C10.4751 23.495 11.0068 22.9632 11.0068 22.3099V19.2379C11.0068 18.5845 10.4751 18.0528 9.82135 18.0528ZM9.87863 22.3098C9.87863 22.3421 9.85407 22.3667 9.82135 22.3667H6.75638C6.72404 22.3667 6.69948 22.3421 6.69948 22.3098V19.2378C6.69948 19.2054 6.72404 19.1809 6.75638 19.1809H9.82135C9.85407 19.1809 9.87863 19.2054 9.87863 19.2378V22.3098Z" fill="#116DD8"/>
<path d="M18.7042 18.0528H15.6392C14.9859 18.0528 14.4541 18.5845 14.4541 19.2379V22.3099C14.4541 22.9632 14.9859 23.495 15.6392 23.495H18.7042C19.3575 23.495 19.8893 22.9632 19.8893 22.3099V19.2379C19.8893 18.5845 19.3574 18.0528 18.7042 18.0528ZM18.7611 22.3098C18.7611 22.3429 18.7372 22.3667 18.7042 22.3667H15.6392C15.6069 22.3667 15.5823 22.3421 15.5823 22.3098V19.2378C15.5823 19.2054 15.6069 19.1809 15.6392 19.1809H18.7042C18.7373 19.1809 18.7611 19.2048 18.7611 19.2378V22.3098Z" fill="#116DD8"/>
<path d="M24.521 23.4949H27.586C28.2393 23.4949 28.7711 22.9631 28.7711 22.3098V19.2378C28.7711 18.5844 28.2393 18.0527 27.586 18.0527H24.521C23.8677 18.0527 23.3359 18.5844 23.3359 19.2378V22.3098C23.336 22.9631 23.8678 23.4949 24.521 23.4949ZM24.4641 19.2378C24.4641 19.2047 24.488 19.1809 24.521 19.1809H27.586C27.6183 19.1809 27.6429 19.2054 27.6429 19.2378V22.3098C27.6429 22.3421 27.6183 22.3667 27.586 22.3667H24.521C24.4879 22.3667 24.4641 22.3428 24.4641 22.3098V19.2378Z" fill="#116DD8"/>
<path d="M33.4042 23.4949H36.4692C37.1225 23.4949 37.6543 22.9631 37.6543 22.3098V19.2378C37.6543 18.5844 37.1225 18.0527 36.4692 18.0527H33.4042C32.7505 18.0527 32.2188 18.5844 32.2188 19.2378V22.3098C32.2188 22.9631 32.7506 23.4949 33.4042 23.4949ZM33.3469 19.2378C33.3469 19.2054 33.3715 19.1809 33.4042 19.1809H36.4692C36.5015 19.1809 36.5261 19.2054 36.5261 19.2378V22.3098C36.5261 22.3421 36.5015 22.3667 36.4692 22.3667H33.4042C33.3715 22.3667 33.3469 22.3421 33.3469 22.3098V19.2378Z" fill="#116DD8"/>
<path d="M9.82135 25.8268H6.75638C6.10304 25.8268 5.57129 26.3586 5.57129 27.0119V30.0839C5.57129 30.7372 6.10304 31.269 6.75638 31.269H9.82135C10.4751 31.269 11.0068 30.7372 11.0068 30.0839V27.0119C11.0068 26.3586 10.4751 25.8268 9.82135 25.8268ZM9.87863 30.0839C9.87863 30.1163 9.85407 30.1408 9.82135 30.1408H6.75638C6.72404 30.1408 6.69948 30.1163 6.69948 30.0839V27.0119C6.69948 26.9796 6.72404 26.955 6.75638 26.955H9.82135C9.85407 26.955 9.87863 26.9796 9.87863 27.0119V30.0839Z" fill="#116DD8"/>
<path d="M18.7042 25.8268H15.6392C14.9859 25.8268 14.4541 26.3586 14.4541 27.0119V30.0839C14.4541 30.7372 14.9859 31.269 15.6392 31.269H18.7042C19.3575 31.269 19.8893 30.7372 19.8893 30.0839V27.0119C19.8893 26.3586 19.3574 25.8268 18.7042 25.8268ZM18.7611 30.0839C18.7611 30.117 18.7372 30.1408 18.7042 30.1408H15.6392C15.6069 30.1408 15.5823 30.1163 15.5823 30.0839V27.0119C15.5823 26.9796 15.6069 26.955 15.6392 26.955H18.7042C18.7373 26.955 18.7611 26.9789 18.7611 27.0119V30.0839Z" fill="#116DD8"/>
<path d="M9.82135 33.601H6.75638C6.10304 33.601 5.57129 34.1327 5.57129 34.786V37.858C5.57129 38.5114 6.10304 39.0431 6.75638 39.0431H9.82135C10.4751 39.0431 11.0068 38.5114 11.0068 37.858V34.786C11.0068 34.1327 10.4751 33.601 9.82135 33.601ZM9.87863 37.858C9.87863 37.8903 9.85407 37.9149 9.82135 37.9149H6.75638C6.72404 37.9149 6.69948 37.8903 6.69948 37.858V34.786C6.69948 34.7536 6.72404 34.729 6.75638 34.729H9.82135C9.85407 34.729 9.87863 34.7536 9.87863 34.786V37.858Z" fill="#116DD8"/>
<path d="M18.7042 33.601H15.6392C14.9859 33.601 14.4541 34.1327 14.4541 34.786V37.858C14.4541 38.5114 14.9859 39.0431 15.6392 39.0431H18.7042C19.3575 39.0431 19.8893 38.5114 19.8893 37.858V34.786C19.8893 34.1327 19.3574 33.601 18.7042 33.601ZM18.7611 37.858C18.7611 37.891 18.7372 37.9149 18.7042 37.9149H15.6392C15.6069 37.9149 15.5823 37.8903 15.5823 37.858V34.786C15.5823 34.7536 15.6069 34.729 15.6392 34.729H18.7042C18.7373 34.729 18.7611 34.753 18.7611 34.786V37.858Z" fill="#116DD8"/>
<path d="M43.1052 25.9129C43.1052 19.6856 43.1052 14.1428 43.1052 7.92104C43.1052 6.25894 41.7527 4.90641 40.0906 4.90641H36.4884V3.22219C36.4884 2.12204 35.6036 1.19316 34.4593 1.19316C33.3403 1.19316 32.4303 2.10357 32.4303 3.22219V4.90632H27.9239V3.22219C27.9239 2.12204 27.0391 1.19316 25.8949 1.19316C24.7759 1.19316 23.8659 2.10357 23.8659 3.22219V4.90632H19.3595V3.22219C19.3595 2.12204 18.4747 1.19316 17.3305 1.19316C16.2115 1.19316 15.3014 2.10357 15.3014 3.22219V4.90632H10.7951V3.22219C10.7951 2.12204 9.91024 1.19316 8.76602 1.19316C7.64702 1.19316 6.73699 2.10357 6.73699 3.22219V4.90632H3.13512C1.47265 4.90632 0.120117 6.25885 0.120117 7.92094V41.0078C0.120117 42.6702 1.47265 44.0228 3.13512 44.0228H28.8281C30.8482 45.7539 33.465 46.8068 36.3269 46.8068C42.6967 46.8068 47.8788 41.621 47.8788 35.2468C47.879 31.4108 45.9919 28.0149 43.1052 25.9129ZM34.4593 2.32135C34.9655 2.32135 35.3602 2.72935 35.3602 3.22219V9.08222C35.3602 9.57901 34.9564 9.98279 34.4597 9.98297C33.963 9.98279 33.5592 9.57901 33.5592 9.08222C33.5592 9.00647 33.5585 2.84082 33.5585 3.22219C33.5585 2.72532 33.9625 2.32135 34.4593 2.32135ZM24.9941 3.22219C24.9941 2.72532 25.3981 2.32135 25.895 2.32135C26.4011 2.32135 26.7958 2.72935 26.7958 3.22219C26.7958 3.29794 26.7939 9.47063 26.794 9.08222C26.794 9.57882 26.3905 9.98232 25.8941 9.98288C25.3976 9.98232 24.9941 9.57882 24.9941 9.08222V3.22219ZM17.3306 2.32135C17.8367 2.32135 18.2314 2.72935 18.2314 3.22219V9.08222C18.2314 9.57872 17.8279 9.98222 17.3317 9.98279C16.8354 9.98213 16.4316 9.57863 16.4316 9.08222C16.4316 9.00675 16.4296 2.94225 16.4297 3.22219C16.4297 2.72532 16.8337 2.32135 17.3306 2.32135ZM7.86537 3.22219C7.86537 2.72532 8.26934 2.32135 8.76621 2.32135C9.27237 2.32135 9.66706 2.72935 9.66706 3.22219C9.66706 3.29794 9.6663 9.47063 9.6663 9.08222C9.6663 9.57901 9.26252 9.98279 8.76583 9.98297C8.26915 9.98279 7.86537 9.57901 7.86537 9.08222V3.22219ZM1.2484 7.92094C1.2484 6.8806 2.09487 6.03441 3.1353 6.03441H6.73643V9.08213C6.73643 10.2008 7.64684 11.1112 8.76546 11.1112H8.76583C8.76583 11.1112 8.76602 11.1112 8.76621 11.1112C9.88521 11.1112 10.7952 10.2008 10.7952 9.08213V6.0345H15.3016V9.08222C15.3016 10.2008 16.2116 11.1113 17.3306 11.1113C17.331 11.1113 17.3314 11.1112 17.3318 11.1112C17.3321 11.1112 17.3325 11.1113 17.3329 11.1113C18.4519 11.1113 19.3619 10.2008 19.3619 9.08222V6.0345H23.8639V9.08222C23.8639 10.2008 24.7743 11.1113 25.8933 11.1113C25.8936 11.1113 25.8939 11.1112 25.8942 11.1112C25.8945 11.1112 25.8948 11.1113 25.8952 11.1113C27.0142 11.1113 27.9242 10.2008 27.9242 9.08222V6.0345H32.4306V9.08222C32.4306 10.2008 33.3406 11.1113 34.4596 11.1113H34.46C34.46 11.1113 34.4602 11.1113 34.4604 11.1113C35.579 11.1113 36.4894 10.2008 36.4894 9.08222V6.0345H40.0909C41.1312 6.0345 41.9774 6.8806 41.9774 7.92104V13.6558H1.2484V7.92094ZM3.1353 42.8947C2.09496 42.8947 1.2484 42.0482 1.2484 41.0078V14.7839H41.9771V25.1694C39.9697 24.0431 37.5571 23.5055 35.1243 23.7583C35.115 23.7593 35.106 23.7615 35.0967 23.7625C32.691 24.0186 30.4366 25.0489 28.6909 26.5891C28.5196 26.1451 28.0912 25.8279 27.5876 25.8279H24.5227C23.8693 25.8279 23.3376 26.3597 23.3376 27.013V30.0847C23.3376 30.7384 23.8693 31.2701 24.5227 31.2701H25.4851C24.9653 32.678 24.7917 34.0022 24.7806 35.1424C24.7536 38.1043 25.8656 40.8566 27.6717 42.8948H3.1353V42.8947ZM27.6445 27.6348C26.978 28.3929 26.3838 29.2891 25.9665 30.1419H24.5226C24.4895 30.1419 24.4657 30.1177 24.4657 30.0847V27.013C24.4657 26.9799 24.4896 26.9561 24.5226 26.9561H27.5876C27.6206 26.9561 27.6445 26.98 27.6445 27.013V27.6348ZM36.3271 45.6787C30.6011 45.6787 25.8463 40.9721 25.9082 35.153C25.9562 29.8554 29.9982 25.445 35.225 24.8828C35.2306 24.8823 35.2361 24.8809 35.2417 24.8803C41.3431 24.2341 46.7509 29.0463 46.7509 35.2468C46.7509 40.9989 42.0748 45.6787 36.3271 45.6787Z" fill="#116DD8"/>
<path d="M36.3267 27.8231C36.0152 27.8231 35.7626 28.0758 35.7626 28.3872V35.0173L32.8742 37.9057C32.6539 38.126 32.6539 38.483 32.8742 38.7033C33.0945 38.9236 33.4515 38.9236 33.6718 38.7033L36.7255 35.6497C36.8312 35.5439 36.8908 35.4003 36.8908 35.2509V28.3871C36.8908 28.0758 36.6381 27.8231 36.3267 27.8231Z" fill="#116DD8"/>
</svg>
