<svg width="24" height="24" viewBox="0 0 24 24" fill="none" xmlns="http://www.w3.org/2000/svg">
<g clip-path="url(#clip0_19_3423)">
<path d="M15.75 11.25C16.5784 11.25 17.25 10.5784 17.25 9.75C17.25 8.92157 16.5784 8.25 15.75 8.25C14.9216 8.25 14.25 8.92157 14.25 9.75C14.25 10.5784 14.9216 11.25 15.75 11.25Z" stroke="#116DD8" stroke-width="2" stroke-linecap="round" stroke-linejoin="round"/>
<path d="M8.25 17.25C9.07843 17.25 9.75 16.5784 9.75 15.75C9.75 14.9216 9.07843 14.25 8.25 14.25C7.42157 14.25 6.75 14.9216 6.75 15.75C6.75 16.5784 7.42157 17.25 8.25 17.25Z" stroke="#116DD8" stroke-width="2" stroke-linecap="round" stroke-linejoin="round"/>
<path d="M14.25 20.25V15L8.25 9V3.75" stroke="#116DD8" stroke-width="2" stroke-linecap="round" stroke-linejoin="round"/>
<path d="M8.25 14.25V9" stroke="#116DD8" stroke-width="2" stroke-linecap="round" stroke-linejoin="round"/>
<path d="M19.5 3.75H4.5C4.08579 3.75 3.75 4.08579 3.75 4.5V19.5C3.75 19.9142 4.08579 20.25 4.5 20.25H19.5C19.9142 20.25 20.25 19.9142 20.25 19.5V4.5C20.25 4.08579 19.9142 3.75 19.5 3.75Z" stroke="#116DD8" stroke-width="2" stroke-linecap="round" stroke-linejoin="round"/>
<path d="M12.75 3.75V6.75L14.6897 8.68969" stroke="#116DD8" stroke-width="2" stroke-linecap="round" stroke-linejoin="round"/>
</g>
<defs>
<clipPath id="clip0_19_3423">
<rect width="24" height="24" fill="white"/>
</clipPath>
</defs>
</svg>
