<svg width="24" height="24" viewBox="0 0 24 24" fill="none" xmlns="http://www.w3.org/2000/svg">
<g clip-path="url(#clip0_12_3981)">
<path d="M6 8.25V9.75C6 10.3467 6.23705 10.919 6.65901 11.341C7.08097 11.7629 7.65326 12 8.25 12H15.75C16.3467 12 16.919 11.7629 17.341 11.341C17.7629 10.919 18 10.3467 18 9.75V8.25" stroke="#2C2D2F" stroke-width="2" stroke-linecap="round" stroke-linejoin="round"/>
<path d="M12 12V15.75" stroke="#2C2D2F" stroke-width="2" stroke-linecap="round" stroke-linejoin="round"/>
<path d="M6 8.25C7.24264 8.25 8.25 7.24264 8.25 6C8.25 4.75736 7.24264 3.75 6 3.75C4.75736 3.75 3.75 4.75736 3.75 6C3.75 7.24264 4.75736 8.25 6 8.25Z" stroke="#2C2D2F" stroke-width="2" stroke-linecap="round" stroke-linejoin="round"/>
<path d="M12 20.25C13.2426 20.25 14.25 19.2426 14.25 18C14.25 16.7574 13.2426 15.75 12 15.75C10.7574 15.75 9.75 16.7574 9.75 18C9.75 19.2426 10.7574 20.25 12 20.25Z" stroke="#2C2D2F" stroke-width="2" stroke-linecap="round" stroke-linejoin="round"/>
<path d="M18 8.25C19.2426 8.25 20.25 7.24264 20.25 6C20.25 4.75736 19.2426 3.75 18 3.75C16.7574 3.75 15.75 4.75736 15.75 6C15.75 7.24264 16.7574 8.25 18 8.25Z" stroke="#2C2D2F" stroke-width="2" stroke-linecap="round" stroke-linejoin="round"/>
</g>
<defs>
<clipPath id="clip0_12_3981">
<rect width="24" height="24" fill="white"/>
</clipPath>
</defs>
</svg>
