<svg width="20" height="18" viewBox="0 0 20 18" fill="none" xmlns="http://www.w3.org/2000/svg">
<path d="M19 10H16C15.6022 10 15.2206 10.158 14.9393 10.4393C14.658 10.7206 14.5 11.1022 14.5 11.5V15.25C14.5 15.6478 14.658 16.0294 14.9393 16.3107C15.2206 16.592 15.6022 16.75 16 16.75H19V10ZM19 10C19 8.8181 18.7672 7.64778 18.3149 6.55585C17.8626 5.46392 17.1997 4.47177 16.364 3.63604C15.5282 2.80031 14.5361 2.13738 13.4442 1.68508C12.3522 1.23279 11.1819 1 10 1C8.8181 1 7.64778 1.23279 6.55585 1.68508C5.46392 2.13738 4.47177 2.80031 3.63604 3.63604C2.80031 4.47177 2.13738 5.46392 1.68508 6.55585C1.23279 7.64778 1 8.8181 1 10M1 10V15.25C1 15.6478 1.15804 16.0294 1.43934 16.3107C1.72064 16.592 2.10218 16.75 2.5 16.75H4C4.39782 16.75 4.77936 16.592 5.06066 16.3107C5.34196 16.0294 5.5 15.6478 5.5 15.25V11.5C5.5 11.1022 5.34196 10.7206 5.06066 10.4393C4.77936 10.158 4.39782 10 4 10H1Z" stroke="#116DD8" stroke-width="2" stroke-linecap="round" stroke-linejoin="round"/>
</svg>
