<svg width="18" height="18" viewBox="0 0 18 18" fill="none" xmlns="http://www.w3.org/2000/svg">
<path d="M3.73719 5.39772C4.64349 5.39772 5.37819 4.66302 5.37819 3.75672C5.37819 2.85042 4.64349 2.11572 3.73719 2.11572C2.83089 2.11572 2.09619 2.85042 2.09619 3.75672C2.09619 4.66302 2.83089 5.39772 3.73719 5.39772Z" fill="white"/>
<path d="M6.92779 6.64102V15.7453H9.75454V11.243C9.75454 10.055 9.97804 8.90452 11.451 8.90452C12.9038 8.90452 12.9218 10.2628 12.9218 11.318V15.746H15.75V10.7533C15.75 8.30077 15.222 6.41602 12.3555 6.41602C10.9793 6.41602 10.0568 7.17127 9.67954 7.88602H9.64129V6.64102H6.92779ZM2.32129 6.64102H5.15254V15.7453H2.32129V6.64102Z" fill="white"/>
</svg>
