<svg width="8" height="4" viewBox="0 0 8 4" fill="none" xmlns="http://www.w3.org/2000/svg">
<path d="M7.97224 3.79418C7.94473 3.85509 7.89814 3.90715 7.83835 3.94379C7.77856 3.98043 7.70826 3.99999 7.63635 4H0.363908C0.291949 4.00005 0.221591 3.98053 0.161741 3.94391C0.101891 3.90729 0.0552405 3.85521 0.0276953 3.79428C0.000149992 3.73334 -0.0070514 3.66628 0.00700273 3.60159C0.0210569 3.5369 0.0557346 3.47749 0.106646 3.43087L3.74286 0.0977557C3.77664 0.0667656 3.81674 0.0421811 3.86088 0.0254074C3.90503 0.00863373 3.95234 0 4.00013 0C4.04791 0 4.09523 0.00863373 4.13937 0.0254074C4.18352 0.0421811 4.22362 0.0667656 4.25739 0.0977557L7.89361 3.43087C7.94445 3.47751 7.97905 3.53692 7.99305 3.60159C8.00704 3.66626 7.9998 3.73328 7.97224 3.79418Z" fill="#323336"/>
</svg>
