<svg width="24" height="25" viewBox="0 0 24 25" fill="none" xmlns="http://www.w3.org/2000/svg">
<g clip-path="url(#clip0_12_3810)">
<path d="M12 21.6172C16.9706 21.6172 21 17.5878 21 12.6172C21 7.64662 16.9706 3.61719 12 3.61719C7.02944 3.61719 3 7.64662 3 12.6172C3 17.5878 7.02944 21.6172 12 21.6172Z" stroke="#2C2D2F" stroke-width="2" stroke-linecap="round" stroke-linejoin="round"/>
<path d="M12 15.6172C14.0711 15.6172 15.75 13.9383 15.75 11.8672C15.75 9.79612 14.0711 8.11719 12 8.11719C9.92893 8.11719 8.25 9.79612 8.25 11.8672C8.25 13.9383 9.92893 15.6172 12 15.6172Z" stroke="#2C2D2F" stroke-width="2" stroke-linecap="round" stroke-linejoin="round"/>
<path d="M5.98126 19.3081C6.54555 18.1966 7.4066 17.2631 8.46896 16.611C9.53132 15.9589 10.7535 15.6138 12 15.6138C13.2465 15.6138 14.4687 15.9589 15.5311 16.611C16.5934 17.2631 17.4545 18.1966 18.0188 19.3081" stroke="#2C2D2F" stroke-width="2" stroke-linecap="round" stroke-linejoin="round"/>
</g>
<defs>
<clipPath id="clip0_12_3810">
<rect width="24" height="24" fill="white" transform="translate(0 0.617188)"/>
</clipPath>
</defs>
</svg>
