<svg width="48" height="48" viewBox="0 0 48 48" fill="none" xmlns="http://www.w3.org/2000/svg">
<path d="M46.6422 42.7058C46.6405 41.2934 46.2158 39.9138 45.423 38.7449C44.6301 37.5759 43.5054 36.6711 42.1938 36.1471C43.315 35.5725 44.2107 34.638 44.7374 33.4934C45.264 32.3489 45.3911 31.0607 45.0981 29.8353C44.8052 28.61 44.1092 27.5185 43.1219 26.7359C42.1345 25.9534 40.913 25.525 39.6531 25.5197C38.3932 25.5143 37.168 25.9321 36.174 26.7062C35.18 27.4803 34.4747 28.5658 34.1713 29.7886C33.8679 31.0114 33.9839 32.3007 34.5008 33.4497C35.0176 34.5986 35.9053 35.5408 37.0216 36.125C35.5494 36.7011 34.3115 37.752 33.504 39.1112L31.3539 38.1404C32.2608 36.8373 32.8045 35.3163 32.9294 33.7336C33.0542 32.1509 32.7556 30.5635 32.0642 29.1344C31.3729 27.7052 30.3136 26.4858 28.9953 25.6012C27.6769 24.7167 26.1469 24.1989 24.5623 24.1011V22.4785H30.4997C30.6489 22.4785 30.7919 22.4193 30.8974 22.3138C31.0029 22.2083 31.0622 22.0652 31.0622 21.916V18.4925C31.0604 17.0749 30.6327 15.6906 29.8345 14.519C29.0363 13.3475 27.9045 12.4429 26.5859 11.9226C27.7047 11.3431 28.5965 10.4048 29.1184 9.25796C29.6402 8.11113 29.7617 6.82229 29.4636 5.59813C29.1654 4.37396 28.4647 3.2854 27.474 2.507C26.4832 1.72861 25.2598 1.30548 23.9998 1.30548C22.7398 1.30548 21.5164 1.72861 20.5256 2.507C19.5349 3.2854 18.8342 4.37396 18.5361 5.59813C18.2379 6.82229 18.3594 8.11113 18.8812 9.25796C19.4031 10.4048 20.2949 11.3431 21.4137 11.9226C20.0951 12.4429 18.9633 13.3475 18.1651 14.519C17.3669 15.6906 16.9392 17.0749 16.9374 18.4925V21.916C16.9374 22.0652 16.9967 22.2083 17.1022 22.3138C17.2077 22.4193 17.3507 22.4785 17.4999 22.4785H23.4373V24.1011C21.8544 24.2026 20.3269 24.7226 19.0109 25.6079C17.6948 26.4932 16.6374 27.712 15.9467 29.1398C15.2559 30.5677 14.9567 32.1533 15.0795 33.7346C15.2023 35.316 15.7428 36.8364 16.6457 38.1404L14.4561 39.1289C13.6542 37.7703 12.4228 36.7172 10.9562 36.136C12.075 35.5566 12.9668 34.6183 13.4886 33.4714C14.0105 32.3246 14.132 31.0358 13.8338 29.8116C13.5357 28.5874 12.835 27.4989 11.8443 26.7205C10.8535 25.9421 9.63004 25.519 8.37009 25.519C7.11013 25.519 5.88667 25.9421 4.89592 26.7205C3.90516 27.4989 3.20451 28.5874 2.90633 29.8116C2.60815 31.0358 2.72972 32.3246 3.25153 33.4714C3.77334 34.6183 4.66517 35.5566 5.78399 36.136C4.46535 36.6563 3.3335 37.5609 2.53529 38.7324C1.73709 39.9039 1.30936 41.2883 1.30762 42.7058V46.1294C1.30762 46.2786 1.36688 46.4217 1.47237 46.5272C1.57786 46.6326 1.72093 46.6919 1.87012 46.6919H14.9197C15.0137 46.6919 15.1062 46.6684 15.1888 46.6235C15.2714 46.5785 15.3413 46.5136 15.3923 46.4347C15.4434 46.3557 15.4738 46.2653 15.4808 46.1715C15.4879 46.0778 15.4713 45.9838 15.4326 45.8981V42.7058C15.4329 41.8281 15.2687 40.9582 14.9485 40.1409L17.3691 39.048C17.4661 39.1547 17.5659 39.2593 17.6683 39.3619C19.3497 41.037 21.6264 41.9776 23.9998 41.9776C26.3732 41.9776 28.6499 41.037 30.3313 39.3619C30.4339 39.2593 30.5336 39.1547 30.6305 39.048L33.0092 40.122C32.684 40.9446 32.5172 41.8213 32.5176 42.7058V46.1294C32.5176 46.2786 32.5768 46.4217 32.6823 46.5272C32.7878 46.6326 32.9309 46.6919 33.0801 46.6919H46.1293C46.2233 46.6919 46.3158 46.6684 46.3984 46.6235C46.4809 46.5785 46.5509 46.5136 46.6019 46.4347C46.6529 46.3557 46.6833 46.2653 46.6904 46.1715C46.6974 46.0778 46.6809 45.9838 46.6422 45.8981V42.7058ZM19.5013 6.9316C19.5013 6.04187 19.7651 5.17212 20.2594 4.43234C20.7537 3.69255 21.4562 3.11595 22.2782 2.77546C23.1002 2.43496 24.0047 2.34586 24.8774 2.51943C25.75 2.69299 26.5516 3.12143 27.1807 3.75055C27.8098 4.37967 28.2383 5.18123 28.4119 6.05385C28.5854 6.92648 28.4964 7.83098 28.1559 8.65298C27.8154 9.47498 27.2388 10.1776 26.499 10.6719C25.7593 11.1662 24.8895 11.43 23.9998 11.43C22.8072 11.4287 21.6637 10.9543 20.8204 10.111C19.9771 9.26765 19.5027 8.12424 19.5013 6.9316ZM18.0624 18.4925C18.0624 16.9178 18.688 15.4076 19.8014 14.2941C20.9149 13.1806 22.4251 12.5551 23.9998 12.5551C25.5745 12.5551 27.0847 13.1806 28.1982 14.2941C29.3116 15.4076 29.9372 16.9178 29.9372 18.4925V21.3535H18.0624V18.4925ZM3.87168 31.1449C3.87175 30.2552 4.13565 29.3855 4.62999 28.6458C5.12433 27.906 5.82692 27.3295 6.64892 26.9891C7.47091 26.6487 8.37539 26.5596 9.24799 26.7332C10.1206 26.9068 10.9221 27.3353 11.5512 27.9644C12.1803 28.5936 12.6087 29.3951 12.7823 30.2677C12.9558 31.1403 12.8667 32.0448 12.5262 32.8668C12.1858 33.6888 11.6092 34.3913 10.8694 34.8856C10.1297 35.3799 9.25997 35.6437 8.37027 35.6438C7.17752 35.6425 6.03399 35.1681 5.19061 34.3246C4.34723 33.4812 3.8729 32.3376 3.87168 31.1449ZM14.3076 45.5669H2.4328V42.7058C2.43905 41.1352 3.06735 39.6311 4.18015 38.5227C5.29296 37.4143 6.7996 36.792 8.37023 36.792C9.94085 36.792 11.4475 37.4143 12.5603 38.5227C13.6731 39.6311 14.3014 41.1352 14.3076 42.7058V45.5669ZM23.9998 40.8526C22.1946 40.8488 20.4466 40.2194 19.0534 39.0716C17.6601 37.9238 16.7077 36.3286 16.3584 34.5576C16.009 32.7865 16.2843 30.9492 17.1374 29.3583C17.9905 27.7674 19.3686 26.5214 21.037 25.8324C22.7055 25.1433 24.5613 25.0539 26.2883 25.5793C28.0153 26.1047 29.5068 27.2124 30.5089 28.7139C31.511 30.2154 31.9617 32.0177 31.7843 33.8142C31.6068 35.6106 30.8123 37.29 29.5358 38.5664C28.8101 39.2946 27.9471 39.8716 26.9968 40.264C26.0466 40.6565 25.0279 40.8565 23.9998 40.8526ZM35.1308 31.1449C35.1309 30.2552 35.3948 29.3855 35.8892 28.6457C36.3835 27.906 37.0861 27.3295 37.9081 26.9891C38.7301 26.6487 39.6346 26.5596 40.5072 26.7332C41.3798 26.9069 42.1813 27.3353 42.8104 27.9645C43.4395 28.5936 43.8679 29.3952 44.0414 30.2678C44.215 31.1404 44.1259 32.0449 43.7854 32.8668C43.4449 33.6888 42.8683 34.3914 42.1285 34.8856C41.3888 35.3799 40.519 35.6438 39.6293 35.6438C38.4366 35.6424 37.2931 35.168 36.4498 34.3246C35.6064 33.4811 35.1321 32.3376 35.1308 31.1449ZM45.5172 45.5669H33.6424V42.7058C33.6486 41.1352 34.2769 39.6311 35.3897 38.5227C36.5025 37.4143 38.0092 36.792 39.5798 36.792C41.1504 36.792 42.6571 37.4143 43.7699 38.5227C44.8827 39.6311 45.511 41.1352 45.5172 42.7058V45.5669Z" fill="#116DD8"/>
<path d="M28.6709 29.8934C28.3681 29.8939 28.0724 29.9849 27.8218 30.1548C27.5712 30.3247 27.3772 30.5657 27.2646 30.8468H20.7342C20.6035 30.5196 20.3628 30.2481 20.0536 30.0791C19.7445 29.9101 19.3861 29.854 19.0401 29.9206C18.6941 29.9872 18.3821 30.1722 18.1577 30.4439C17.9333 30.7155 17.8105 31.0569 17.8105 31.4093C17.8105 31.7616 17.9333 32.103 18.1577 32.3746C18.3821 32.6463 18.6941 32.8313 19.0401 32.8979C19.3861 32.9645 19.7445 32.9084 20.0536 32.7394C20.3628 32.5704 20.6035 32.299 20.7342 31.9718H21.5539C21.189 32.3164 20.8986 32.7323 20.7009 33.1936C20.5031 33.655 20.4022 34.1521 20.4043 34.654V35.6665H19.868C19.7189 35.6665 19.5758 35.7258 19.4703 35.8313C19.3648 35.9368 19.3055 36.0798 19.3055 36.229V38.1358C19.3055 38.285 19.3648 38.4281 19.4703 38.5336C19.5758 38.639 19.7189 38.6983 19.868 38.6983H21.7747C21.9239 38.6983 22.067 38.639 22.1725 38.5336C22.278 38.4281 22.3372 38.285 22.3372 38.1358V36.2294C22.3372 36.0802 22.278 35.9371 22.1725 35.8317C22.067 35.7262 21.9239 35.6669 21.7747 35.6669H21.5293V34.6544C21.5293 33.295 22.5661 32.1868 23.8899 32.1325C23.9626 32.1294 24.0358 32.1294 24.109 32.1325C25.4326 32.1869 26.4694 33.295 26.4694 34.6544V35.6669H26.2239C26.0747 35.6669 25.9317 35.7262 25.8262 35.8317C25.7207 35.9371 25.6614 36.0802 25.6614 36.2294V38.1362C25.6614 38.2854 25.7207 38.4284 25.8262 38.5339C25.9317 38.6394 26.0747 38.6987 26.2239 38.6987H28.1306C28.2798 38.6987 28.4229 38.6394 28.5284 38.5339C28.6338 38.4284 28.6931 38.2854 28.6931 38.1362V36.2294C28.6931 36.0802 28.6338 35.9371 28.5284 35.8317C28.4229 35.7262 28.2798 35.6669 28.1306 35.6669H27.5944V34.6544C27.5965 34.1524 27.4955 33.6554 27.2977 33.194C27.1 32.7326 26.8097 32.3168 26.4447 31.9721H27.2645C27.3667 32.2277 27.5366 32.4505 27.7559 32.6168C27.9753 32.783 28.2357 32.8864 28.5094 32.9158C28.783 32.9453 29.0595 32.8996 29.3092 32.7838C29.5588 32.6679 29.7722 32.4863 29.9264 32.2584C30.0807 32.0304 30.1699 31.7648 30.1846 31.4899C30.1993 31.2151 30.1388 30.9415 30.0097 30.6984C29.8806 30.4553 29.6878 30.252 29.4519 30.1102C29.216 29.9685 28.9459 29.8937 28.6707 29.8938L28.6709 29.8934ZM21.2122 37.5737H20.4305V36.7919H21.2122V37.5737ZM27.5685 37.5737H26.7868V36.7919H27.5685V37.5737ZM19.3278 31.8C19.2504 31.8 19.1748 31.7771 19.1105 31.7342C19.0462 31.6912 18.9961 31.6302 18.9665 31.5587C18.9369 31.4873 18.9292 31.4087 18.9442 31.3329C18.9593 31.257 18.9965 31.1873 19.0512 31.1327C19.1059 31.078 19.1755 31.0407 19.2514 31.0256C19.3272 31.0106 19.4058 31.0183 19.4773 31.0479C19.5487 31.0775 19.6098 31.1276 19.6527 31.1919C19.6957 31.2562 19.7186 31.3317 19.7186 31.4091C19.7185 31.5127 19.6773 31.612 19.604 31.6853C19.5307 31.7586 19.4314 31.7999 19.3278 31.8ZM28.6709 31.8C28.5936 31.8 28.518 31.7771 28.4537 31.7341C28.3894 31.6912 28.3393 31.6301 28.3097 31.5587C28.2801 31.4872 28.2724 31.4086 28.2875 31.3328C28.3025 31.257 28.3398 31.1873 28.3945 31.1326C28.4491 31.078 28.5188 31.0407 28.5946 31.0256C28.6705 31.0106 28.7491 31.0183 28.8205 31.0479C28.8919 31.0775 28.953 31.1276 28.9959 31.1919C29.0389 31.2562 29.0618 31.3317 29.0618 31.4091C29.0617 31.5127 29.0205 31.6121 28.9472 31.6854C28.8739 31.7587 28.7745 31.7999 28.6709 31.8Z" fill="#116DD8"/>
</svg>
