<svg width="48" height="48" viewBox="0 0 48 48" fill="none" xmlns="http://www.w3.org/2000/svg">
<path d="M25.8197 9.01781V10.695C25.8197 11.0053 26.0719 11.2575 26.3822 11.2575H28.5637C28.8741 11.2575 29.1262 11.0053 29.1262 10.695C29.1262 9.8025 29.8528 9.07594 30.7453 9.07594C31.6378 9.07594 32.3644 9.8025 32.3644 10.695C32.3644 11.0053 32.6166 11.2575 32.9269 11.2575H35.1084C35.4188 11.2575 35.6709 11.0053 35.6709 10.695V1.96875C35.6709 1.65844 35.4188 1.40625 35.1084 1.40625H26.3822C26.0719 1.40625 25.8197 1.65844 25.8197 1.96875V3.64594C24.5756 3.90656 23.6381 5.01188 23.6381 6.33187C23.6381 7.65188 24.5756 8.75719 25.8197 9.01781ZM26.3822 4.71281C26.6925 4.71281 26.9447 4.46062 26.9447 4.15031V2.53125H34.5459V10.1325H33.4313C33.1706 8.88844 32.0653 7.95094 30.7453 7.95094C29.4253 7.95094 28.3191 8.88844 28.0594 10.1325H26.9447V8.51344C26.9447 8.20312 26.6925 7.95094 26.3822 7.95094C25.4897 7.95094 24.7631 7.22438 24.7631 6.33187C24.7631 5.43937 25.4897 4.71281 26.3822 4.71281ZM12.8916 24.0881H21.6178H30.3441C30.6544 24.0881 30.9066 23.8359 30.9066 23.5256V14.7994C30.9066 14.4891 30.6544 14.2369 30.3441 14.2369H28.6669C28.4062 12.9928 27.3009 12.0553 25.9809 12.0553C24.6609 12.0553 23.5547 12.9928 23.295 14.2369H22.1803V12.6188C22.1803 12.3084 21.9281 12.0563 21.6178 12.0563C20.7253 12.0563 19.9988 11.3297 19.9988 10.4372C19.9988 9.54469 20.7253 8.81812 21.6178 8.81812C21.9281 8.81812 22.1803 8.56594 22.1803 8.25562V6.07406C22.1803 5.76375 21.9281 5.51156 21.6178 5.51156H12.8916C12.5812 5.51156 12.3291 5.76375 12.3291 6.07406V14.8003V23.5266C12.3291 23.8369 12.5812 24.0881 12.8916 24.0881ZM21.0553 21.3441V22.9631H13.4541V15.3619H14.5687C14.8294 16.6059 15.9347 17.5434 17.2547 17.5434C18.5747 17.5434 19.6809 16.6059 19.9406 15.3619H21.0553V16.9809C21.0553 17.2913 21.3075 17.5434 21.6178 17.5434C22.5103 17.5434 23.2369 18.27 23.2369 19.1625C23.2369 20.055 22.5103 20.7816 21.6178 20.7816C21.3066 20.7816 21.0553 21.0338 21.0553 21.3441ZM23.7994 15.3628C24.1097 15.3628 24.3619 15.1106 24.3619 14.8003C24.3619 13.9078 25.0884 13.1813 25.9809 13.1813C26.8734 13.1813 27.6 13.9078 27.6 14.8003C27.6 15.1106 27.8522 15.3628 28.1625 15.3628H29.7816V22.9641H22.1803V21.8494C23.4244 21.5887 24.3619 20.4834 24.3619 19.1634C24.3619 17.8434 23.4244 16.7372 22.1803 16.4775V15.3628H23.7994ZM13.4541 6.63656H21.0553V7.75125C19.8112 8.01188 18.8738 9.11719 18.8738 10.4372C18.8738 11.7572 19.8112 12.8634 21.0553 13.1231V14.2378H19.4363C19.1259 14.2378 18.8738 14.49 18.8738 14.8003C18.8738 15.6928 18.1472 16.4194 17.2547 16.4194C16.3622 16.4194 15.6356 15.6928 15.6356 14.8003C15.6356 14.49 15.3834 14.2378 15.0731 14.2378H13.4541V6.63656ZM40.7081 35.5931C42.0403 34.7381 42.9253 33.2447 42.9253 31.5478C42.9253 28.8984 40.77 26.7431 38.1206 26.7431C35.4712 26.7431 33.3159 28.8984 33.3159 31.5478C33.3159 33.2475 34.2047 34.7437 35.5406 35.5978C33.915 35.9409 32.5434 36.6206 31.5291 37.5994C30.4875 36.3291 28.8844 35.3288 26.6663 34.8862C28.125 33.9881 29.0991 32.3766 29.0991 30.5419C29.0991 27.7303 26.8116 25.4419 23.9991 25.4419C21.1866 25.4419 18.8991 27.7294 18.8991 30.5419C18.8991 32.3766 19.8741 33.9881 21.3319 34.8862C19.1137 35.3288 17.5106 36.3291 16.4691 37.5994C15.4547 36.6206 14.0841 35.9409 12.4575 35.5978C13.7934 34.7437 14.6822 33.2475 14.6822 31.5478C14.6822 28.8984 12.5269 26.7431 9.8775 26.7431C7.22813 26.7431 5.07281 28.8984 5.07281 31.5478C5.07281 33.2447 5.95781 34.7381 7.29 35.5931C3.24844 36.435 1.40625 39.2625 1.40625 42.0713V46.0312C1.40625 46.3416 1.65844 46.5938 1.96875 46.5938H15.54H32.4609H46.0312C46.3416 46.5938 46.5938 46.3416 46.5938 46.0312V42.0713C46.5938 39.2625 44.7516 36.435 40.7081 35.5931ZM34.4409 31.5478C34.4409 29.5191 36.0919 27.8681 38.1206 27.8681C40.1494 27.8681 41.8003 29.5191 41.8003 31.5478C41.8003 33.5766 40.1494 35.2275 38.1206 35.2275C36.0919 35.2275 34.4409 33.5766 34.4409 31.5478ZM20.025 30.5409C20.025 28.3491 21.8081 26.5659 24 26.5659C26.1919 26.5659 27.975 28.3491 27.975 30.5409C27.975 32.7328 26.1919 34.5159 24 34.5159C21.8081 34.5159 20.025 32.7328 20.025 30.5409ZM6.19969 31.5478C6.19969 29.5191 7.85063 27.8681 9.87937 27.8681C11.9081 27.8681 13.5591 29.5191 13.5591 31.5478C13.5591 33.5766 11.9081 35.2275 9.87937 35.2275C7.85063 35.2275 6.19969 33.5766 6.19969 31.5478ZM2.53125 42.0713C2.53125 38.6663 5.41594 36.4659 9.87937 36.4659C12.4369 36.4659 14.5284 37.2 15.8231 38.5416C15.2531 39.5541 14.9775 40.6763 14.9775 41.7956V45.4688H14.52V42.7341C14.52 42.4237 14.2678 42.1716 13.9575 42.1716C13.6472 42.1716 13.395 42.4237 13.395 42.7341V45.4688H6.36375V42.7341C6.36375 42.4237 6.11156 42.1716 5.80125 42.1716C5.49094 42.1716 5.23875 42.4237 5.23875 42.7341V45.4688H2.53125V42.0713ZM31.8975 45.4688H28.9237V42.5053C28.9237 42.195 28.6716 41.9428 28.3612 41.9428C28.0509 41.9428 27.7987 42.195 27.7987 42.5053V45.4688H20.2003V42.5053C20.2003 42.195 19.9481 41.9428 19.6378 41.9428C19.3275 41.9428 19.0753 42.195 19.0753 42.5053V45.4688H16.1016V41.7956C16.1016 38.13 19.2019 35.7619 23.9991 35.7619C28.7962 35.7619 31.8966 38.13 31.8966 41.7956V45.4688H31.8975ZM45.4688 45.4688H42.7612V42.7341C42.7612 42.4237 42.5091 42.1716 42.1987 42.1716C41.8884 42.1716 41.6362 42.4237 41.6362 42.7341V45.4688H34.605V42.7341C34.605 42.4237 34.3528 42.1716 34.0425 42.1716C33.7322 42.1716 33.48 42.4237 33.48 42.7341V45.4688H33.0225V41.7956C33.0225 40.6763 32.7469 39.555 32.1769 38.5416C33.4716 37.2 35.5631 36.4659 38.1206 36.4659C42.5841 36.4659 45.4688 38.6663 45.4688 42.0713V45.4688Z" fill="#116DD8"/>
</svg>
