<svg width="40" height="40" viewBox="0 0 40 40" fill="none" xmlns="http://www.w3.org/2000/svg">
<rect width="40" height="40" rx="20" fill="#7360F2"/>
<path d="M14.883 29.7753C14.883 29.3928 14.883 29.0103 14.883 28.6278C14.8857 28.6122 14.8851 28.5962 14.8813 28.5807C14.8776 28.5653 14.8706 28.5508 14.861 28.5382C14.8513 28.5255 14.8391 28.515 14.8252 28.5072C14.8112 28.4994 14.7958 28.4945 14.7799 28.4928C13.8231 28.2235 12.9401 27.7437 12.1965 27.0892C11.6547 26.6009 11.2036 26.0221 10.8637 25.3793C10.3847 24.4507 10.0658 23.4492 9.92049 22.4163C9.74038 21.1207 9.67783 19.8117 9.73358 18.505C9.74581 17.8958 9.77725 17.2935 9.84712 16.6843C9.95855 15.5266 10.2533 14.3935 10.7205 13.3267C11.2974 12.015 12.344 10.9614 13.6585 10.369C14.5539 9.96296 15.496 9.66655 16.4637 9.48631C17.4128 9.30819 18.3737 9.19886 19.3389 9.1592C20.2088 9.12872 21.0798 9.14143 21.9485 9.19728C23.1918 9.24928 24.4238 9.45331 25.6166 9.80475C26.501 10.0573 27.3423 10.4394 28.1127 10.9384C28.8634 11.4489 29.4705 12.1404 29.8769 12.9477C30.3547 13.8906 30.6795 14.9022 30.8394 15.9453C30.9432 16.5646 31.0114 17.1892 31.0437 17.8161C31.0892 18.5932 31.0839 19.3738 31.0542 20.1474C31.0245 20.921 30.9581 21.6721 30.8621 22.4302C30.7406 23.5679 30.3877 24.6695 29.8245 25.6683C29.0915 26.9318 27.9172 27.886 26.5232 28.3509C25.57 28.6816 24.5857 28.917 23.5852 29.0536C22.8533 29.1539 22.1197 29.2266 21.3826 29.2561C20.8184 29.282 20.2542 29.2751 19.69 29.2664C19.3703 29.2664 19.0524 29.2353 18.7345 29.2076C18.7033 29.2018 18.671 29.2052 18.6418 29.2176C18.6126 29.2299 18.5877 29.2505 18.5703 29.2768C17.9275 30.0418 17.2603 30.786 16.5878 31.5267C16.4653 31.6619 16.3234 31.7785 16.1668 31.8729C16.064 31.9397 15.9467 31.9816 15.8245 31.9953C15.7023 32.009 15.5786 31.994 15.4634 31.9515C15.3481 31.9091 15.2445 31.8404 15.161 31.7509C15.0775 31.6615 15.0163 31.5539 14.9825 31.4367C14.916 31.2286 14.8829 31.0113 14.8847 30.7929C14.883 30.4502 14.883 30.1127 14.883 29.7753ZM15.6603 31.2273L15.7423 31.1512L17.2009 29.5468C17.7622 28.9295 18.3229 28.3117 18.883 27.6932C18.9105 27.6555 18.9477 27.6257 18.9906 27.6068C19.0336 27.588 19.0808 27.5808 19.1275 27.5859C19.3179 27.605 19.5083 27.6119 19.7004 27.6136C20.3642 27.6136 21.028 27.6136 21.6917 27.5669C22.2943 27.5202 22.8952 27.4475 23.4926 27.354C24.1358 27.2431 24.7725 27.0981 25.4 26.9196C26.7974 26.5475 27.8787 25.7514 28.5581 24.462C28.9593 23.6693 29.2109 22.8106 29.3005 21.9283C29.4067 21.0967 29.4702 20.2602 29.4909 19.4222C29.5219 18.3695 29.4493 17.3163 29.2743 16.2776C29.153 15.525 28.9346 14.7909 28.6245 14.0934C28.2297 13.2281 27.6708 12.5116 26.8097 12.0512C25.4891 11.3451 24.0603 11.0301 22.5878 10.8691C22.1703 10.8241 21.7529 10.7999 21.3336 10.7843C20.4753 10.7405 19.6151 10.7451 18.7572 10.7982C18.1403 10.8435 17.5266 10.9256 16.9196 11.0439C16.027 11.2052 15.1634 11.4968 14.3572 11.9093C13.8898 12.1433 13.4657 12.454 13.103 12.8283C12.5152 13.4793 12.084 14.2538 11.8419 15.0938C11.5547 16.072 11.3979 17.0832 11.3755 18.1017C11.3193 19.1202 11.3322 20.1413 11.4139 21.1581C11.4648 21.7632 11.5671 22.363 11.7196 22.9511C11.9466 23.8676 12.3868 24.7187 13.0052 25.4364C13.6728 26.1686 14.5357 26.699 15.4943 26.9663C15.6148 27.0027 15.669 27.0442 15.669 27.1792C15.6585 27.6777 15.669 28.1761 15.669 28.6745L15.6603 31.2273Z" fill="white"/>
<path d="M14.4379 15.7692C14.4257 15.3901 14.6336 15.115 14.8851 14.8675C15.2168 14.5526 15.5823 14.2746 15.9751 14.0385C16.1541 13.929 16.3671 13.8874 16.5747 13.9211C16.7823 13.9548 16.9707 14.0616 17.1052 14.2219C17.5804 14.7168 18.0057 15.2565 18.3751 15.8332C18.558 16.0926 18.6961 16.3804 18.7838 16.6847C18.8188 16.8035 18.8211 16.9294 18.7904 17.0493C18.7597 17.1692 18.6971 17.2788 18.6091 17.3666C18.4076 17.5626 18.1929 17.7447 17.9663 17.9118C17.8522 18.0019 17.7673 18.1233 17.7223 18.2609C17.6773 18.3984 17.674 18.546 17.7131 18.6854C17.8529 19.3397 18.17 19.944 18.6301 20.4334C19.1892 21.1097 19.9096 21.6373 20.7262 21.9685C20.9268 22.0707 21.1567 22.1019 21.3777 22.0568C21.4987 22.0241 21.6063 21.9544 21.6851 21.8578C21.8074 21.7037 21.9402 21.5549 22.0502 21.3905C22.1929 21.1854 22.4109 21.0436 22.6575 20.9955C22.9042 20.9473 23.1601 20.9965 23.3707 21.1326C23.9628 21.473 24.5218 21.867 25.0406 22.3095C25.1629 22.4133 25.2904 22.5137 25.4127 22.6193C25.5573 22.7286 25.6618 22.8819 25.7101 23.0557C25.7584 23.2296 25.7478 23.4143 25.6799 23.5815C25.572 23.8628 25.4147 24.123 25.2153 24.35C24.9675 24.6912 24.6518 24.9786 24.2878 25.1945C24.1137 25.2958 23.9182 25.3553 23.7168 25.3682C23.5154 25.3811 23.3137 25.3471 23.1279 25.269C21.7147 24.7052 20.3942 23.9358 19.21 22.9862C18.0517 22.0414 17.0395 20.9335 16.2056 19.6979C15.5039 18.6749 14.9457 17.5623 14.5462 16.3905C14.5037 16.2488 14.4687 16.1049 14.4414 15.9595C14.4337 15.8964 14.4325 15.8326 14.4379 15.7692Z" fill="white"/>
<path d="M20.4689 13.9273C21.6513 13.949 22.7885 14.3811 23.6823 15.1484C24.576 15.9157 25.1697 16.9695 25.3597 18.126C25.4362 18.5465 25.4771 18.9725 25.482 19.3998C25.482 19.5002 25.4558 19.5728 25.3475 19.5832C25.2392 19.5936 25.2112 19.5019 25.2112 19.4102C25.2275 18.546 25.0484 17.6891 24.6872 16.9024C24.383 16.2559 23.9324 15.6877 23.3704 15.2419C22.8084 14.7962 22.1502 14.4849 21.447 14.3323C21.0752 14.247 20.695 14.2029 20.3134 14.2008C20.2762 14.2014 20.2392 14.1967 20.2033 14.1869C20.1728 14.1784 20.1469 14.1585 20.1309 14.1314C20.1149 14.1042 20.1102 14.072 20.1178 14.0415C20.118 14.0271 20.1211 14.0128 20.127 13.9995C20.1328 13.9863 20.1413 13.9743 20.1518 13.9643C20.1624 13.9543 20.1749 13.9465 20.1885 13.9414C20.2022 13.9362 20.2167 13.9338 20.2313 13.9342C20.3099 13.9239 20.3902 13.9273 20.4689 13.9273Z" fill="white"/>
<path d="M23.8403 18.6208C23.8344 18.14 23.7149 17.6672 23.4914 17.2404C23.2678 16.8136 22.9464 16.4447 22.553 16.1632C22.0938 15.8436 21.5599 15.6453 21.0019 15.5869C20.9075 15.5748 20.8132 15.5696 20.7171 15.5592C20.6211 15.5488 20.5634 15.509 20.5722 15.4121C20.5809 15.3152 20.642 15.2806 20.7468 15.2875C22.2944 15.3809 23.6115 16.248 24.0167 17.8628C24.0908 18.1741 24.1278 18.493 24.1268 18.8129C24.1268 18.8423 24.1268 18.8717 24.1268 18.8994C24.1268 18.986 24.0709 19.0431 23.9853 19.0414C23.9663 19.0407 23.9476 19.0363 23.9305 19.0282C23.9133 19.0202 23.8979 19.0088 23.8853 18.9947C23.8727 18.9806 23.8632 18.9642 23.8572 18.9463C23.8513 18.9284 23.8491 18.9095 23.8508 18.8908C23.8368 18.8094 23.8403 18.7264 23.8403 18.6208Z" fill="white"/>
<path d="M21.1292 16.6927C21.9781 16.7498 22.5702 17.1617 22.7327 18.0565C22.7524 18.1711 22.7664 18.2867 22.7746 18.4027C22.7746 18.4961 22.7536 18.5757 22.6506 18.5757C22.5475 18.5757 22.5126 18.5065 22.5091 18.4027C22.5081 18.0597 22.4015 17.7251 22.2034 17.4438C21.9953 17.1891 21.6964 17.0231 21.3685 16.98C21.2951 16.9664 21.2211 16.9572 21.1466 16.9523C21.0244 16.9523 20.9562 16.8918 20.972 16.7983C20.9877 16.7048 21.061 16.6875 21.1292 16.6927Z" fill="white"/>
</svg>
