<svg width="40" height="40" viewBox="0 0 40 40" fill="none" xmlns="http://www.w3.org/2000/svg">
<rect width="40" height="40" rx="20" fill="url(#paint0_linear_576_16293)"/>
<path d="M9.27187 18.1431C9.27187 18.1431 18.8346 13.9022 22.1511 12.4088C23.4225 11.8115 27.734 9.90003 27.734 9.90003C27.734 9.90003 29.7239 9.06383 29.5581 11.0947C29.5028 11.931 29.0606 14.8578 28.6184 18.0237C27.9551 22.5036 27.2365 27.4017 27.2365 27.4017C27.2365 27.4017 27.1259 28.7755 26.1863 29.0145C25.2466 29.2534 23.6988 28.1783 23.4225 27.9393C23.2013 27.7601 19.2768 25.0721 17.8396 23.758C17.4527 23.3996 17.0105 22.6829 17.8949 21.8466C19.8848 19.8754 22.2617 17.4264 23.6988 15.8733C24.3622 15.1565 25.0254 13.484 22.2617 15.5149C18.3371 18.4418 14.4678 21.1895 14.4678 21.1895C14.4678 21.1895 13.5834 21.7868 11.9251 21.2492C10.2668 20.7117 8.33213 19.9948 8.33213 19.9948C8.33213 19.9948 7.00558 19.0989 9.27187 18.1431Z" fill="white"/>
<defs>
<linearGradient id="paint0_linear_576_16293" x1="3.52308" y1="2.98107" x2="36.8568" y2="39.0249" gradientUnits="userSpaceOnUse">
<stop stop-color="#1E95D0"/>
<stop offset="1" stop-color="#0083C5"/>
</linearGradient>
</defs>
</svg>
